# Made in Blockbench 5.2.1
mtllib materials.mtl

o Torso_Uniforme
v 0.35119622353392943 0.3007319431188111 0.14375
v 0.35119622353392943 0.3007319431188111 -0.14375
v 0.3346290610196997 0.06381048118210278 0.14375
v 0.3346290610196997 0.06381048118210278 -0.14375
v -0.3346290610196997 0.3486895188178972 -0.14375
v -0.3346290610196997 0.3486895188178972 0.14375
v -0.35119622353392943 0.11176805688118893 -0.14375
v -0.35119622353392943 0.11176805688118893 0.14375
vt 0 1
vt 0.125 1
vt 0.125 0.875
vt 0 0.875
vt 0 1
vt 0.125 1
vt 0.125 0.875
vt 0 0.875
vt 0 1
vt 0.125 1
vt 0.125 0.875
vt 0 0.875
vt 0 1
vt 0.125 1
vt 0.125 0.875
vt 0 0.875
vt 0 1
vt 0.125 1
vt 0.125 0.875
vt 0 0.875
vt 0 1
vt 0.125 1
vt 0.125 0.875
vt 0 0.875
vn 0 0 -1
vn 0.9975640502598242 -0.0697564737441253 0
vn 0 0 1
vn -0.9975640502598242 0.0697564737441253 0
vn 0.0697564737441253 0.9975640502598242 0
vn -0.0697564737441253 -0.9975640502598242 0
usemtl m_32aea56c-33ad-467f-9f63-0e1cbe12098f
f 4/4/1 7/3/1 5/2/1 2/1/1
f 3/8/2 4/7/2 2/6/2 1/5/2
f 8/12/3 3/11/3 1/10/3 6/9/3
f 7/16/4 8/15/4 6/14/4 5/13/4
f 6/20/5 1/19/5 2/18/5 5/17/5
f 7/24/6 4/23/6 3/22/6 8/21/6
o Mochila
v 0.17662251473846022 0.294189326024033 0.3125
v 0.17662251473846022 0.294189326024033 0.14375
v 0.16005535222423048 0.05726786408732473 0.3125
v 0.16005535222423048 0.05726786408732473 0.14375
v -0.16005535222423048 0.3177321359126753 0.14375
v -0.16005535222423048 0.3177321359126753 0.3125
v -0.17662251473846022 0.08081067397596702 0.14375
v -0.17662251473846022 0.08081067397596702 0.3125
vt 0 0.875
vt 0.125 0.875
vt 0.125 0.75
vt 0 0.75
vt 0 0.875
vt 0.125 0.875
vt 0.125 0.75
vt 0 0.75
vt 0 0.875
vt 0.125 0.875
vt 0.125 0.75
vt 0 0.75
vt 0 0.875
vt 0.125 0.875
vt 0.125 0.75
vt 0 0.75
vt 0 0.875
vt 0.125 0.875
vt 0.125 0.75
vt 0 0.75
vt 0 0.875
vt 0.125 0.875
vt 0.125 0.75
vt 0 0.75
vn 0 0 -1
vn 0.9975640502598242 -0.0697564737441253 0
vn 0 0 1
vn -0.9975640502598242 0.0697564737441253 0
vn 0.0697564737441253 0.9975640502598242 0
vn -0.0697564737441253 -0.9975640502598242 0
usemtl m_32aea56c-33ad-467f-9f63-0e1cbe12098f
f 12/28/7 15/27/7 13/26/7 10/25/7
f 11/32/8 12/31/8 10/30/8 9/29/8
f 16/36/9 11/35/9 9/34/9 14/33/9
f 15/40/10 16/39/10 14/38/10 13/37/10
f 14/44/11 9/43/11 10/42/11 13/41/11
f 15/48/12 12/47/12 11/46/12 16/45/12
o Cinturon
v 0.07499999999999998 0.3125 -0.12187500000000001
v 0.07499999999999998 0.3125 -0.153125
v 0.07499999999999998 0.07499999999999998 -0.12187500000000001
v 0.07499999999999998 0.07499999999999998 -0.153125
v -0.06875 0.3125 -0.153125
v -0.06875 0.3125 -0.12187500000000001
v -0.06875 0.07499999999999998 -0.153125
v -0.06875 0.07499999999999998 -0.12187500000000001
vt 0.625 1
vt 0.75 1
vt 0.75 0.875
vt 0.625 0.875
vt 0.625 1
vt 0.75 1
vt 0.75 0.875
vt 0.625 0.875
vt 0.625 1
vt 0.75 1
vt 0.75 0.875
vt 0.625 0.875
vt 0.625 1
vt 0.75 1
vt 0.75 0.875
vt 0.625 0.875
vt 0.625 1
vt 0.75 1
vt 0.75 0.875
vt 0.625 0.875
vt 0.625 1
vt 0.75 1
vt 0.75 0.875
vt 0.625 0.875
vn 0 0 -1
vn 1 0 0
vn 0 0 1
vn -1 0 0
vn 0 1 0
vn 0 -1 0
usemtl m_32aea56c-33ad-467f-9f63-0e1cbe12098f
f 20/52/13 23/51/13 21/50/13 18/49/13
f 19/56/14 20/55/14 18/54/14 17/53/14
f 24/60/15 19/59/15 17/58/15 22/57/15
f 23/64/16 24/63/16 22/62/16 21/61/16
f 22/68/17 17/67/17 18/66/17 21/65/17
f 23/72/18 20/71/18 19/70/18 24/69/18
o Cartuchera_A
v -0.0625 0.2625 -0.1375
v -0.0625 0.2625 -0.18124999999999997
v -0.0625 0.1375 -0.1375
v -0.0625 0.1375 -0.18124999999999997
v -0.15625 0.2625 -0.18124999999999997
v -0.15625 0.2625 -0.1375
v -0.15625 0.1375 -0.18124999999999997
v -0.15625 0.1375 -0.1375
vt 0.625 1
vt 0.75 1
vt 0.75 0.875
vt 0.625 0.875
vt 0.625 1
vt 0.75 1
vt 0.75 0.875
vt 0.625 0.875
vt 0.625 1
vt 0.75 1
vt 0.75 0.875
vt 0.625 0.875
vt 0.625 1
vt 0.75 1
vt 0.75 0.875
vt 0.625 0.875
vt 0.625 1
vt 0.75 1
vt 0.75 0.875
vt 0.625 0.875
vt 0.625 1
vt 0.75 1
vt 0.75 0.875
vt 0.625 0.875
vn 0 0 -1
vn 1 0 0
vn 0 0 1
vn -1 0 0
vn 0 1 0
vn 0 -1 0
usemtl m_32aea56c-33ad-467f-9f63-0e1cbe12098f
f 28/76/19 31/75/19 29/74/19 26/73/19
f 27/80/20 28/79/20 26/78/20 25/77/20
f 32/84/21 27/83/21 25/82/21 30/81/21
f 31/88/22 32/87/22 30/86/22 29/85/22
f 30/92/23 25/91/23 26/90/23 29/89/23
f 31/96/24 28/95/24 27/94/24 32/93/24
o Cartuchera_B
v 0.15625 0.25 -0.1375
v 0.15625 0.25 -0.18124999999999997
v 0.15625 0.125 -0.1375
v 0.15625 0.125 -0.18124999999999997
v 0.0625 0.25 -0.18124999999999997
v 0.0625 0.25 -0.1375
v 0.0625 0.125 -0.18124999999999997
v 0.0625 0.125 -0.1375
vt 0.625 1
vt 0.75 1
vt 0.75 0.875
vt 0.625 0.875
vt 0.625 1
vt 0.75 1
vt 0.75 0.875
vt 0.625 0.875
vt 0.625 1
vt 0.75 1
vt 0.75 0.875
vt 0.625 0.875
vt 0.625 1
vt 0.75 1
vt 0.75 0.875
vt 0.625 0.875
vt 0.625 1
vt 0.75 1
vt 0.75 0.875
vt 0.625 0.875
vt 0.625 1
vt 0.75 1
vt 0.75 0.875
vt 0.625 0.875
vn 0 0 -1
vn 1 0 0
vn 0 0 1
vn -1 0 0
vn 0 1 0
vn 0 -1 0
usemtl m_32aea56c-33ad-467f-9f63-0e1cbe12098f
f 36/100/25 39/99/25 37/98/25 34/97/25
f 35/104/26 36/103/26 34/102/26 33/101/26
f 40/108/27 35/107/27 33/106/27 38/105/27
f 39/112/28 40/111/28 38/110/28 37/109/28
f 38/116/29 33/115/29 34/114/29 37/113/29
f 39/120/30 36/119/30 35/118/30 40/117/30
o Cuello
v 0.4108259523973501 0.2643662021289162 0.06875
v 0.4108259523973501 0.2643662021289162 -0.06875
v 0.3880346290785655 0.13511018454606397 0.06875
v 0.3880346290785655 0.13511018454606397 -0.06875
v 0.3369653709214346 0.277389815453936 -0.06875
v 0.3369653709214346 0.277389815453936 0.06875
v 0.31417404760264994 0.14813379787108372 -0.06875
v 0.31417404760264994 0.14813379787108372 0.06875
vt 0.25 1
vt 0.375 1
vt 0.375 0.875
vt 0.25 0.875
vt 0.25 1
vt 0.375 1
vt 0.375 0.875
vt 0.25 0.875
vt 0.25 1
vt 0.375 1
vt 0.375 0.875
vt 0.25 0.875
vt 0.25 1
vt 0.375 1
vt 0.375 0.875
vt 0.25 0.875
vt 0.25 1
vt 0.375 1
vt 0.375 0.875
vt 0.25 0.875
vt 0.25 1
vt 0.375 1
vt 0.375 0.875
vt 0.25 0.875
vn 0 0 -1
vn 0.984807753012208 -0.17364817766693033 0
vn 0 0 1
vn -0.984807753012208 0.17364817766693033 0
vn 0.17364817766693033 0.984807753012208 0
vn -0.17364817766693033 -0.984807753012208 0
usemtl m_32aea56c-33ad-467f-9f63-0e1cbe12098f
f 44/124/31 47/123/31 45/122/31 42/121/31
f 43/128/32 44/127/32 42/126/32 41/125/32
f 48/132/33 43/131/33 41/130/33 46/129/33
f 47/136/34 48/135/34 46/134/34 45/133/34
f 46/140/35 41/139/35 42/138/35 45/137/35
f 47/144/36 44/143/36 43/142/36 48/141/36
o Cabeza
v 0.797090331260899 0.39268146858965836 0.1875
v 0.797090331260899 0.39268146858965836 -0.1875
v 0.7352281679670551 0.0418437065790592 0.1875
v 0.7352281679670551 0.0418437065790592 -0.1875
v 0.40932227851234215 0.46105543854601216 -0.1875
v 0.40932227851234215 0.46105543854601216 0.1875
v 0.3474601152184982 0.11021767653541303 -0.1875
v 0.3474601152184982 0.11021767653541303 0.1875
vt 0.25 1
vt 0.375 1
vt 0.375 0.875
vt 0.25 0.875
vt 0.25 1
vt 0.375 1
vt 0.375 0.875
vt 0.25 0.875
vt 0.25 1
vt 0.375 1
vt 0.375 0.875
vt 0.25 0.875
vt 0.25 1
vt 0.375 1
vt 0.375 0.875
vt 0.25 0.875
vt 0.25 1
vt 0.375 1
vt 0.375 0.875
vt 0.25 0.875
vt 0.25 1
vt 0.375 1
vt 0.375 0.875
vt 0.25 0.875
vn 0 0 -1
vn 0.984807753012208 -0.17364817766693033 0
vn 0 0 1
vn -0.984807753012208 0.17364817766693033 0
vn 0.17364817766693033 0.984807753012208 0
vn -0.17364817766693033 -0.984807753012208 0
usemtl m_32aea56c-33ad-467f-9f63-0e1cbe12098f
f 52/148/37 55/147/37 53/146/37 50/145/37
f 51/152/38 52/151/38 50/150/38 49/149/38
f 56/156/39 51/155/39 49/154/39 54/153/39
f 55/160/40 56/159/40 54/158/40 53/157/40
f 54/164/41 49/163/41 50/162/41 53/161/41
f 55/168/42 52/167/42 51/166/42 56/165/42
o Nariz
v 0.7812269520314888 0.27742438740670283 0.04375
v 0.7812269520314888 0.27742438740670283 -0.04375
v 0.7671180375960507 0.19740875747446096 0.04375
v 0.7671180375960507 0.19740875747446096 -0.04375
v 0.7504517097498573 0.2828508929587944 -0.04375
v 0.7504517097498573 0.2828508929587944 0.04375
v 0.7363427953144193 0.20283526302655253 -0.04375
v 0.7363427953144193 0.20283526302655253 0.04375
vt 0.25 1
vt 0.375 1
vt 0.375 0.875
vt 0.25 0.875
vt 0.25 1
vt 0.375 1
vt 0.375 0.875
vt 0.25 0.875
vt 0.25 1
vt 0.375 1
vt 0.375 0.875
vt 0.25 0.875
vt 0.25 1
vt 0.375 1
vt 0.375 0.875
vt 0.25 0.875
vt 0.25 1
vt 0.375 1
vt 0.375 0.875
vt 0.25 0.875
vt 0.25 1
vt 0.375 1
vt 0.375 0.875
vt 0.25 0.875
vn 0 0 -1
vn 0.984807753012208 -0.17364817766693033 0
vn 0 0 1
vn -0.984807753012208 0.17364817766693033 0
vn 0.17364817766693033 0.984807753012208 0
vn -0.17364817766693033 -0.984807753012208 0
usemtl m_32aea56c-33ad-467f-9f63-0e1cbe12098f
f 60/172/43 63/171/43 61/170/43 58/169/43
f 59/176/44 60/175/44 58/174/44 57/173/44
f 64/180/45 59/179/45 57/178/45 62/177/45
f 63/184/46 64/183/46 62/182/46 61/181/46
f 62/188/47 57/187/47 58/186/47 61/185/47
f 63/192/48 60/191/48 59/190/48 64/189/48
o Ojo_Izq_Cerrado
v 0.5816706403047025 0.3110579406833981 -0.11250000000000002
v 0.5816706403047025 0.3110579406833981 -0.13125
v 0.5784147369734475 0.2925927953144191 -0.11250000000000002
v 0.5784147369734475 0.2925927953144191 -0.13125
v 0.5016550103724605 0.32516685511883614 -0.13125
v 0.5016550103724605 0.32516685511883614 -0.11250000000000002
v 0.49839910704120555 0.3067017097498572 -0.13125
v 0.49839910704120555 0.3067017097498572 -0.11250000000000002
vt 0.25 0.875
vt 0.375 0.875
vt 0.375 0.75
vt 0.25 0.75
vt 0.25 0.875
vt 0.375 0.875
vt 0.375 0.75
vt 0.25 0.75
vt 0.25 0.875
vt 0.375 0.875
vt 0.375 0.75
vt 0.25 0.75
vt 0.25 0.875
vt 0.375 0.875
vt 0.375 0.75
vt 0.25 0.75
vt 0.25 0.875
vt 0.375 0.875
vt 0.375 0.75
vt 0.25 0.75
vt 0.25 0.875
vt 0.375 0.875
vt 0.375 0.75
vt 0.25 0.75
vn 0 0 -1
vn 0.984807753012208 -0.17364817766693033 0
vn 0 0 1
vn -0.984807753012208 0.17364817766693033 0
vn 0.17364817766693033 0.984807753012208 0
vn -0.17364817766693033 -0.984807753012208 0
usemtl m_32aea56c-33ad-467f-9f63-0e1cbe12098f
f 68/196/49 71/195/49 69/194/49 66/193/49
f 67/200/50 68/199/50 66/198/50 65/197/50
f 72/204/51 67/203/51 65/202/51 70/201/51
f 71/208/52 72/207/52 70/206/52 69/205/52
f 70/212/53 65/211/53 66/210/53 69/209/53
f 71/216/54 68/215/54 67/214/54 72/213/54
o Ojo_Der_Cerrado
v 0.5816706403047025 0.3110579406833981 0.13125
v 0.5816706403047025 0.3110579406833981 0.11250000000000002
v 0.5784147369734475 0.2925927953144191 0.13125
v 0.5784147369734475 0.2925927953144191 0.11250000000000002
v 0.5016550103724605 0.32516685511883614 0.11250000000000002
v 0.5016550103724605 0.32516685511883614 0.13125
v 0.49839910704120555 0.3067017097498572 0.11250000000000002
v 0.49839910704120555 0.3067017097498572 0.13125
vt 0.25 0.875
vt 0.375 0.875
vt 0.375 0.75
vt 0.25 0.75
vt 0.25 0.875
vt 0.375 0.875
vt 0.375 0.75
vt 0.25 0.75
vt 0.25 0.875
vt 0.375 0.875
vt 0.375 0.75
vt 0.25 0.75
vt 0.25 0.875
vt 0.375 0.875
vt 0.375 0.75
vt 0.25 0.75
vt 0.25 0.875
vt 0.375 0.875
vt 0.375 0.75
vt 0.25 0.75
vt 0.25 0.875
vt 0.375 0.875
vt 0.375 0.75
vt 0.25 0.75
vn 0 0 -1
vn 0.984807753012208 -0.17364817766693033 0
vn 0 0 1
vn -0.984807753012208 0.17364817766693033 0
vn 0.17364817766693033 0.984807753012208 0
vn -0.17364817766693033 -0.984807753012208 0
usemtl m_32aea56c-33ad-467f-9f63-0e1cbe12098f
f 76/220/55 79/219/55 77/218/55 74/217/55
f 75/224/56 76/223/56 74/222/56 73/221/56
f 80/228/57 75/227/57 73/226/57 78/225/57
f 79/232/58 80/231/58 78/230/58 77/229/58
f 78/236/59 73/235/59 74/234/59 77/233/59
f 79/240/60 76/239/60 75/238/60 80/237/60
o Casco_Copa
v 0.7624749285603989 0.5755976501693214 0.2125
v 0.7624749285603989 0.5755976501693214 -0.2125
v 0.8014583705887288 0.39219497503173284 0.2125
v 0.8014583705887288 0.39219497503173284 -0.2125
v 0.3834427332760493 0.4950318699774397 -0.2125
v 0.3834427332760493 0.4950318699774397 0.2125
v 0.4224261753043791 0.31162919483985113 -0.2125
v 0.4224261753043791 0.31162919483985113 0.2125
vt 0.375 1
vt 0.5 1
vt 0.5 0.875
vt 0.375 0.875
vt 0.375 1
vt 0.5 1
vt 0.5 0.875
vt 0.375 0.875
vt 0.375 1
vt 0.5 1
vt 0.5 0.875
vt 0.375 0.875
vt 0.375 1
vt 0.5 1
vt 0.5 0.875
vt 0.375 0.875
vt 0.375 1
vt 0.5 1
vt 0.5 0.875
vt 0.375 0.875
vt 0.375 1
vt 0.5 1
vt 0.5 0.875
vt 0.375 0.875
vn 0 0 -1
vn 0.9781476007338057 0.2079116908177593 0
vn 0 0 1
vn -0.9781476007338057 -0.2079116908177593 0
vn -0.2079116908177593 0.9781476007338057 0
vn 0.2079116908177593 -0.9781476007338057 0
usemtl m_32aea56c-33ad-467f-9f63-0e1cbe12098f
f 84/244/61 87/243/61 85/242/61 82/241/61
f 83/248/62 84/247/62 82/246/62 81/245/62
f 88/252/63 83/251/63 81/250/63 86/249/63
f 87/256/64 88/255/64 86/254/64 85/253/64
f 86/260/65 81/259/65 82/258/65 85/257/65
f 87/264/66 84/263/66 83/262/66 88/261/66
o Casco_Visera
v 0.8086354178946624 0.433733820452341 0.24375
v 0.8086354178946624 0.433733820452341 -0.24375
v 0.8203304505031613 0.37871301791106443 0.24375
v 0.8203304505031613 0.37871301791106443 -0.24375
v 0.3745824200690361 0.3414730076519603 -0.24375
v 0.3745824200690361 0.3414730076519603 0.24375
v 0.38627745267753505 0.2864522051106837 -0.24375
v 0.38627745267753505 0.2864522051106837 0.24375
vt 0.375 1
vt 0.5 1
vt 0.5 0.875
vt 0.375 0.875
vt 0.375 1
vt 0.5 1
vt 0.5 0.875
vt 0.375 0.875
vt 0.375 1
vt 0.5 1
vt 0.5 0.875
vt 0.375 0.875
vt 0.375 1
vt 0.5 1
vt 0.5 0.875
vt 0.375 0.875
vt 0.375 1
vt 0.5 1
vt 0.5 0.875
vt 0.375 0.875
vt 0.375 1
vt 0.5 1
vt 0.5 0.875
vt 0.375 0.875
vn 0 0 -1
vn 0.9781476007338057 0.2079116908177593 0
vn 0 0 1
vn -0.9781476007338057 -0.2079116908177593 0
vn -0.2079116908177593 0.9781476007338057 0
vn 0.2079116908177593 -0.9781476007338057 0
usemtl m_32aea56c-33ad-467f-9f63-0e1cbe12098f
f 92/268/67 95/267/67 93/266/67 90/265/67
f 91/272/68 92/271/68 90/270/68 89/269/68
f 96/276/69 91/275/69 89/274/69 94/273/69
f 95/280/70 96/279/70 94/278/70 93/277/70
f 94/284/71 89/283/71 90/282/71 93/281/71
f 95/288/72 92/287/72 91/286/72 96/285/72
o Pierna_Izquierda
v -0.3581662861927854 0.24644702307564637 0.103125
v -0.3581662861927854 0.24644702307564637 -0.103125
v -0.34248701670263737 0.09726873877040534 0.103125
v -0.34248701670263737 0.09726873877040534 -0.103125
v -0.8429957101848187 0.19548939723266529 -0.103125
v -0.8429957101848187 0.19548939723266529 0.103125
v -0.8273164406946707 0.04631111292742428 -0.103125
v -0.8273164406946707 0.04631111292742428 0.103125
vt 0.125 1
vt 0.25 1
vt 0.25 0.875
vt 0.125 0.875
vt 0.125 1
vt 0.25 1
vt 0.25 0.875
vt 0.125 0.875
vt 0.125 1
vt 0.25 1
vt 0.25 0.875
vt 0.125 0.875
vt 0.125 1
vt 0.25 1
vt 0.25 0.875
vt 0.125 0.875
vt 0.125 1
vt 0.25 1
vt 0.25 0.875
vt 0.125 0.875
vt 0.125 1
vt 0.25 1
vt 0.25 0.875
vt 0.125 0.875
vn 0 0 -1
vn 0.9945218953682733 0.10452846326765346 0
vn 0 0 1
vn -0.9945218953682733 -0.10452846326765346 0
vn -0.10452846326765346 0.9945218953682733 0
vn 0.10452846326765346 -0.9945218953682733 0
usemtl m_32aea56c-33ad-467f-9f63-0e1cbe12098f
f 100/292/73 103/291/73 101/290/73 98/289/73
f 99/296/74 100/295/74 98/294/74 97/293/74
f 104/300/75 99/299/75 97/298/75 102/297/75
f 103/304/76 104/303/76 102/302/76 101/301/76
f 102/308/77 97/307/77 98/306/77 101/305/77
f 103/312/78 100/311/78 99/310/78 104/309/78
o Bota_Izquierda
v -0.8345413682915276 0.2601851525585955 0.125
v -0.8345413682915276 0.2601851525585955 -0.125
v -0.8155955843242655 0.0799280590230959 0.125
v -0.8155955843242655 0.0799280590230959 -0.125
v -1.0085826999809755 0.2418926714867561 -0.125
v -1.0085826999809755 0.2418926714867561 0.125
v -0.9896369160137133 0.06163557795125654 -0.125
v -0.9896369160137133 0.06163557795125654 0.125
vt 0.5 1
vt 0.625 1
vt 0.625 0.875
vt 0.5 0.875
vt 0.5 1
vt 0.625 1
vt 0.625 0.875
vt 0.5 0.875
vt 0.5 1
vt 0.625 1
vt 0.625 0.875
vt 0.5 0.875
vt 0.5 1
vt 0.625 1
vt 0.625 0.875
vt 0.5 0.875
vt 0.5 1
vt 0.625 1
vt 0.625 0.875
vt 0.5 0.875
vt 0.5 1
vt 0.625 1
vt 0.625 0.875
vt 0.5 0.875
vn 0 0 -1
vn 0.9945218953682733 0.10452846326765346 0
vn 0 0 1
vn -0.9945218953682733 -0.10452846326765346 0
vn -0.10452846326765346 0.9945218953682733 0
vn 0.10452846326765346 -0.9945218953682733 0
usemtl m_32aea56c-33ad-467f-9f63-0e1cbe12098f
f 108/316/79 111/315/79 109/314/79 106/313/79
f 107/320/80 108/319/80 106/318/80 105/317/80
f 112/324/81 107/323/81 105/322/81 110/321/81
f 111/328/82 112/327/82 110/326/82 109/325/82
f 110/332/83 105/331/83 106/330/83 109/329/83
f 111/336/84 108/335/84 107/334/84 112/333/84
o Pierna_Derecha
v -0.3018237254218789 0.2463292387221365 0.1
v -0.3018237254218789 0.2463292387221365 -0.1
v -0.3472105964706993 0.10664281289128584 0.1
v -0.3472105964706993 0.10664281289128584 -0.1
v -0.7060227448473192 0.37766146133148915 -0.1
v -0.7060227448473192 0.37766146133148915 0.1
v -0.7514096158961396 0.2379750355006385 -0.1
v -0.7514096158961396 0.2379750355006385 0.1
vt 0.125 1
vt 0.25 1
vt 0.25 0.875
vt 0.125 0.875
vt 0.125 1
vt 0.25 1
vt 0.25 0.875
vt 0.125 0.875
vt 0.125 1
vt 0.25 1
vt 0.25 0.875
vt 0.125 0.875
vt 0.125 1
vt 0.25 1
vt 0.25 0.875
vt 0.125 0.875
vt 0.125 1
vt 0.25 1
vt 0.25 0.875
vt 0.125 0.875
vt 0.125 1
vt 0.25 1
vt 0.25 0.875
vt 0.125 0.875
vn 0 0 -1
vn 0.9510565162951535 -0.30901699437494745 0
vn 0 0 1
vn -0.9510565162951535 0.30901699437494745 0
vn 0.30901699437494745 0.9510565162951535 0
vn -0.30901699437494745 -0.9510565162951535 0
usemtl m_32aea56c-33ad-467f-9f63-0e1cbe12098f
f 116/340/85 119/339/85 117/338/85 114/337/85
f 115/344/86 116/343/86 114/342/86 113/341/86
f 120/348/87 115/347/87 113/346/87 118/345/87
f 119/352/88 120/351/88 118/350/88 117/349/88
f 118/356/89 113/355/89 114/354/89 117/353/89
f 119/360/90 116/359/90 115/358/90 120/357/90
o Bota_Derecha
v -0.7051287033116579 0.23992337653129564 0.121875
v -0.7051287033116579 0.23992337653129564 -0.121875
v -0.7572753211124303 0.07943258940648852 0.121875
v -0.7572753211124303 0.07943258940648852 -0.121875
v -0.8596753872096204 0.2901386381172246 -0.121875
v -0.8596753872096204 0.2901386381172246 0.121875
v -0.9118220050103929 0.1296478509924175 -0.121875
v -0.9118220050103929 0.1296478509924175 0.121875
vt 0.5 1
vt 0.625 1
vt 0.625 0.875
vt 0.5 0.875
vt 0.5 1
vt 0.625 1
vt 0.625 0.875
vt 0.5 0.875
vt 0.5 1
vt 0.625 1
vt 0.625 0.875
vt 0.5 0.875
vt 0.5 1
vt 0.625 1
vt 0.625 0.875
vt 0.5 0.875
vt 0.5 1
vt 0.625 1
vt 0.625 0.875
vt 0.5 0.875
vt 0.5 1
vt 0.625 1
vt 0.625 0.875
vt 0.5 0.875
vn 0 0 -1
vn 0.9510565162951535 -0.30901699437494745 0
vn 0 0 1
vn -0.9510565162951535 0.30901699437494745 0
vn 0.30901699437494745 0.9510565162951535 0
vn -0.30901699437494745 -0.9510565162951535 0
usemtl m_32aea56c-33ad-467f-9f63-0e1cbe12098f
f 124/364/91 127/363/91 125/362/91 122/361/91
f 123/368/92 124/367/92 122/366/92 121/365/92
f 128/372/93 123/371/93 121/370/93 126/369/93
f 127/376/94 128/375/94 126/374/94 125/373/94
f 126/380/95 121/379/95 122/378/95 125/377/95
f 127/384/96 124/383/96 123/382/96 128/381/96
o Brazo_Izquierdo
v 0.28125 0.18124999999999997 -0.15000000000000002
v 0.28125 0.18124999999999997 -0.36875
v 0.28125 0.05 -0.15000000000000002
v 0.28125 0.05 -0.36875
v -0.07500000000000001 0.18124999999999997 -0.36875
v -0.07500000000000001 0.18124999999999997 -0.15000000000000002
v -0.07500000000000001 0.05 -0.36875
v -0.07500000000000001 0.05 -0.15000000000000002
vt 0 1
vt 0.125 1
vt 0.125 0.875
vt 0 0.875
vt 0 1
vt 0.125 1
vt 0.125 0.875
vt 0 0.875
vt 0 1
vt 0.125 1
vt 0.125 0.875
vt 0 0.875
vt 0 1
vt 0.125 1
vt 0.125 0.875
vt 0 0.875
vt 0 1
vt 0.125 1
vt 0.125 0.875
vt 0 0.875
vt 0 1
vt 0.125 1
vt 0.125 0.875
vt 0 0.875
vn 0 0 -1
vn 1 0 0
vn 0 0 1
vn -1 0 0
vn 0 1 0
vn 0 -1 0
usemtl m_32aea56c-33ad-467f-9f63-0e1cbe12098f
f 132/388/97 135/387/97 133/386/97 130/385/97
f 131/392/98 132/391/98 130/390/98 129/389/98
f 136/396/99 131/395/99 129/394/99 134/393/99
f 135/400/100 136/399/100 134/398/100 133/397/100
f 134/404/101 129/403/101 130/402/101 133/401/101
f 135/408/102 132/407/102 131/406/102 136/405/102
o Mano_Izquierda
v 0.39375 0.175 -0.19375000000000003
v 0.39375 0.175 -0.35625
v 0.39375 0.04375 -0.19375000000000003
v 0.39375 0.04375 -0.35625
v 0.2625 0.175 -0.35625
v 0.2625 0.175 -0.19375000000000003
v 0.2625 0.04375 -0.35625
v 0.2625 0.04375 -0.19375000000000003
vt 0.25 1
vt 0.375 1
vt 0.375 0.875
vt 0.25 0.875
vt 0.25 1
vt 0.375 1
vt 0.375 0.875
vt 0.25 0.875
vt 0.25 1
vt 0.375 1
vt 0.375 0.875
vt 0.25 0.875
vt 0.25 1
vt 0.375 1
vt 0.375 0.875
vt 0.25 0.875
vt 0.25 1
vt 0.375 1
vt 0.375 0.875
vt 0.25 0.875
vt 0.25 1
vt 0.375 1
vt 0.375 0.875
vt 0.25 0.875
vn 0 0 -1
vn 1 0 0
vn 0 0 1
vn -1 0 0
vn 0 1 0
vn 0 -1 0
usemtl m_32aea56c-33ad-467f-9f63-0e1cbe12098f
f 140/412/103 143/411/103 141/410/103 138/409/103
f 139/416/104 140/415/104 138/414/104 137/413/104
f 144/420/105 139/419/105 137/418/105 142/417/105
f 143/424/106 144/423/106 142/422/106 141/421/106
f 142/428/107 137/427/107 138/426/107 141/425/107
f 143/432/108 140/431/108 139/430/108 144/429/108
o Brazo_Derecho
v 0.31474881505342917 0.3701194591972539 0.325
v 0.31474881505342917 0.3701194591972539 0.1375
v 0.2845085781034707 0.24883249341275437 0.325
v 0.2845085781034707 0.24883249341275437 0.1375
v -0.006661644275494649 0.4502560871146438 0.1375
v -0.006661644275494649 0.4502560871146438 0.325
v -0.036901881225453126 0.3289691213301443 0.1375
v -0.036901881225453126 0.3289691213301443 0.325
vt 0 1
vt 0.125 1
vt 0.125 0.875
vt 0 0.875
vt 0 1
vt 0.125 1
vt 0.125 0.875
vt 0 0.875
vt 0 1
vt 0.125 1
vt 0.125 0.875
vt 0 0.875
vt 0 1
vt 0.125 1
vt 0.125 0.875
vt 0 0.875
vt 0 1
vt 0.125 1
vt 0.125 0.875
vt 0 0.875
vt 0 1
vt 0.125 1
vt 0.125 0.875
vt 0 0.875
vn 0 0 -1
vn 0.9702957262759965 -0.24192189559966767 0
vn 0 0 1
vn -0.9702957262759965 0.24192189559966767 0
vn 0.24192189559966767 0.9702957262759965 0
vn -0.24192189559966767 -0.9702957262759965 0
usemtl m_32aea56c-33ad-467f-9f63-0e1cbe12098f
f 148/436/109 151/435/109 149/434/109 146/433/109
f 147/440/110 148/439/110 146/438/110 145/437/110
f 152/444/111 147/443/111 145/442/111 150/441/111
f 151/448/112 152/447/112 150/446/112 149/445/112
f 150/452/113 145/451/113 146/450/113 149/449/113
f 151/456/114 148/455/114 147/454/114 152/453/114
o Mano_Derecha
v 0.4117515895197311 0.3457090161280456 0.4125
v 0.4117515895197311 0.3457090161280456 0.2875
v 0.38453537626476847 0.23655074692199596 0.4125
v 0.38453537626476847 0.23655074692199596 0.2875
v 0.30259332031368147 0.37292522938300826 0.2875
v 0.30259332031368147 0.37292522938300826 0.4125
v 0.2753771070587189 0.2637669601769586 0.2875
v 0.2753771070587189 0.2637669601769586 0.4125
vt 0.25 1
vt 0.375 1
vt 0.375 0.875
vt 0.25 0.875
vt 0.25 1
vt 0.375 1
vt 0.375 0.875
vt 0.25 0.875
vt 0.25 1
vt 0.375 1
vt 0.375 0.875
vt 0.25 0.875
vt 0.25 1
vt 0.375 1
vt 0.375 0.875
vt 0.25 0.875
vt 0.25 1
vt 0.375 1
vt 0.375 0.875
vt 0.25 0.875
vt 0.25 1
vt 0.375 1
vt 0.375 0.875
vt 0.25 0.875
vn 0 0 -1
vn 0.9702957262759965 -0.24192189559966767 0
vn 0 0 1
vn -0.9702957262759965 0.24192189559966767 0
vn 0.24192189559966767 0.9702957262759965 0
vn -0.24192189559966767 -0.9702957262759965 0
usemtl m_32aea56c-33ad-467f-9f63-0e1cbe12098f
f 156/460/115 159/459/115 157/458/115 154/457/115
f 155/464/116 156/463/116 154/462/116 153/461/116
f 160/468/117 155/467/117 153/466/117 158/465/117
f 159/472/118 160/471/118 158/470/118 157/469/118
f 158/476/119 153/475/119 154/474/119 157/473/119
f 159/480/120 156/479/120 155/478/120 160/477/120
o Fusil_Culata
v -0.19338397300199503 0.08598589042037214 0.48749999999999993
v -0.19338397300199503 0.08598589042037214 0.4
v -0.16634498599418712 0.002768445244546197 0.48749999999999993
v -0.16634498599418712 0.002768445244546197 0.4
v -0.34793065689995745 0.03577062883444317 0.4
v -0.34793065689995745 0.03577062883444317 0.48749999999999993
v -0.32089166989214957 -0.04744681634138276 0.4
v -0.32089166989214957 -0.04744681634138276 0.48749999999999993
vt 0.75 1
vt 0.875 1
vt 0.875 0.875
vt 0.75 0.875
vt 0.75 1
vt 0.875 1
vt 0.875 0.875
vt 0.75 0.875
vt 0.75 1
vt 0.875 1
vt 0.875 0.875
vt 0.75 0.875
vt 0.75 1
vt 0.875 1
vt 0.875 0.875
vt 0.75 0.875
vt 0.75 1
vt 0.875 1
vt 0.875 0.875
vt 0.75 0.875
vt 0.75 1
vt 0.875 1
vt 0.875 0.875
vt 0.75 0.875
vn 0 0 -1
vn 0.9510565162951535 0.30901699437494745 0
vn 0 0 1
vn -0.9510565162951535 -0.30901699437494745 0
vn -0.30901699437494745 0.9510565162951535 0
vn 0.30901699437494745 -0.9510565162951535 0
usemtl m_32aea56c-33ad-467f-9f63-0e1cbe12098f
f 164/484/121 167/483/121 165/482/121 162/481/121
f 163/488/122 164/487/122 162/486/122 161/485/122
f 168/492/123 163/491/123 161/490/123 166/489/123
f 167/496/124 168/495/124 166/494/124 165/493/124
f 166/500/125 161/499/125 162/498/125 165/497/125
f 167/504/126 164/503/126 163/502/126 168/501/126
o Fusil_Cuerpo
v 0.20873365562628732 0.20349855036119194 0.475
v 0.20873365562628732 0.20349855036119194 0.4125
v 0.22997857398956495 0.13811341486590017 0.475
v 0.22997857398956495 0.13811341486590017 0.4125
v -0.19546536379915289 0.07216632775183929 0.4125
v -0.19546536379915289 0.07216632775183929 0.475
v -0.17422044543587523 0.006781192256547497 0.4125
v -0.17422044543587523 0.006781192256547497 0.475
vt 0.75 1
vt 0.875 1
vt 0.875 0.875
vt 0.75 0.875
vt 0.75 1
vt 0.875 1
vt 0.875 0.875
vt 0.75 0.875
vt 0.75 1
vt 0.875 1
vt 0.875 0.875
vt 0.75 0.875
vt 0.75 1
vt 0.875 1
vt 0.875 0.875
vt 0.75 0.875
vt 0.75 1
vt 0.875 1
vt 0.875 0.875
vt 0.75 0.875
vt 0.75 1
vt 0.875 1
vt 0.875 0.875
vt 0.75 0.875
vn 0 0 -1
vn 0.9510565162951535 0.30901699437494745 0
vn 0 0 1
vn -0.9510565162951535 -0.30901699437494745 0
vn -0.30901699437494745 0.9510565162951535 0
vn 0.30901699437494745 -0.9510565162951535 0
usemtl m_32aea56c-33ad-467f-9f63-0e1cbe12098f
f 172/508/127 175/507/127 173/506/127 170/505/127
f 171/512/128 172/511/128 170/510/128 169/509/128
f 176/516/129 171/515/129 169/514/129 174/513/129
f 175/520/130 176/519/130 174/518/130 173/517/130
f 174/524/131 169/523/131 170/522/131 173/521/131
f 175/528/132 172/527/132 171/526/132 176/525/132
o Fusil_Canon
v 0.5751866648935015 0.30942307301295124 0.459375
v 0.5751866648935015 0.30942307301295124 0.428125
v 0.5887061583974055 0.2678143504250383 0.459375
v 0.5887061583974055 0.2678143504250383 0.428125
v 0.20070816160228477 0.1877476314778157 0.428125
v 0.20070816160228477 0.1877476314778157 0.459375
v 0.21422765510618869 0.14613890888990272 0.428125
v 0.21422765510618869 0.14613890888990272 0.459375
vt 0.875 1
vt 1 1
vt 1 0.875
vt 0.875 0.875
vt 0.875 1
vt 1 1
vt 1 0.875
vt 0.875 0.875
vt 0.875 1
vt 1 1
vt 1 0.875
vt 0.875 0.875
vt 0.875 1
vt 1 1
vt 1 0.875
vt 0.875 0.875
vt 0.875 1
vt 1 1
vt 1 0.875
vt 0.875 0.875
vt 0.875 1
vt 1 1
vt 1 0.875
vt 0.875 0.875
vn 0 0 -1
vn 0.9510565162951535 0.30901699437494745 0
vn 0 0 1
vn -0.9510565162951535 -0.30901699437494745 0
vn -0.30901699437494745 0.9510565162951535 0
vn 0.30901699437494745 -0.9510565162951535 0
usemtl m_32aea56c-33ad-467f-9f63-0e1cbe12098f
f 180/532/133 183/531/133 181/530/133 178/529/133
f 179/536/134 180/535/134 178/534/134 177/533/134
f 184/540/135 179/539/135 177/538/135 182/537/135
f 183/544/136 184/543/136 182/542/136 181/541/136
f 182/548/137 177/547/137 178/546/137 181/545/137
f 183/552/138 180/551/138 179/550/138 184/549/138
o Fusil_Mira
v 0.588190584036927 0.33007739972459327 0.47187499999999993
v 0.588190584036927 0.33007739972459327 0.415625
v 0.6075041461853612 0.27063636745614617 0.47187499999999993
v 0.6075041461853612 0.27063636745614617 0.415625
v 0.5049731388611012 0.3030384127167854 0.415625
v 0.5049731388611012 0.3030384127167854 0.47187499999999993
v 0.5242867010095353 0.2435973804483383 0.415625
v 0.5242867010095353 0.2435973804483383 0.47187499999999993
vt 0.875 1
vt 1 1
vt 1 0.875
vt 0.875 0.875
vt 0.875 1
vt 1 1
vt 1 0.875
vt 0.875 0.875
vt 0.875 1
vt 1 1
vt 1 0.875
vt 0.875 0.875
vt 0.875 1
vt 1 1
vt 1 0.875
vt 0.875 0.875
vt 0.875 1
vt 1 1
vt 1 0.875
vt 0.875 0.875
vt 0.875 1
vt 1 1
vt 1 0.875
vt 0.875 0.875
vn 0 0 -1
vn 0.9510565162951535 0.30901699437494745 0
vn 0 0 1
vn -0.9510565162951535 -0.30901699437494745 0
vn -0.30901699437494745 0.9510565162951535 0
vn 0.30901699437494745 -0.9510565162951535 0
usemtl m_32aea56c-33ad-467f-9f63-0e1cbe12098f
f 188/556/139 191/555/139 189/554/139 186/553/139
f 187/560/140 188/559/140 186/558/140 185/557/140
f 192/564/141 187/563/141 185/562/141 190/561/141
f 191/568/142 192/567/142 190/566/142 189/565/142
f 190/572/143 185/571/143 186/570/143 189/569/143
f 191/576/144 188/575/144 187/574/144 192/573/144