# Made in Blockbench 5.2.1
mtllib materials.mtl

o Base_0_0
v -0.25 0.015625 -0.25
v -0.25 0.015625 -0.5
v -0.25 -0.0875 -0.25
v -0.25 -0.0875 -0.5
v -0.5 0.015625 -0.5
v -0.5 0.015625 -0.25
v -0.5 -0.0875 -0.5
v -0.5 -0.0875 -0.25
vt 0 1
vt 0.25 1
vt 0.25 0.75
vt 0 0.75
vt 0 1
vt 0.25 1
vt 0.25 0.75
vt 0 0.75
vt 0 1
vt 0.25 1
vt 0.25 0.75
vt 0 0.75
vt 0 1
vt 0.25 1
vt 0.25 0.75
vt 0 0.75
vt 0 1
vt 0.25 1
vt 0.25 0.75
vt 0 0.75
vt 0 1
vt 0.25 1
vt 0.25 0.75
vt 0 0.75
vn 0 0 -1
vn 1 0 0
vn 0 0 1
vn -1 0 0
vn 0 1 0
vn 0 -1 0
usemtl m_68a9886e-79b4-4145-9302-49580742863e
f 4/4/1 7/3/1 5/2/1 2/1/1
f 3/8/2 4/7/2 2/6/2 1/5/2
f 8/12/3 3/11/3 1/10/3 6/9/3
f 7/16/4 8/15/4 6/14/4 5/13/4
f 6/20/5 1/19/5 2/18/5 5/17/5
f 7/24/6 4/23/6 3/22/6 8/21/6
o Base_0_1
v -0.25 0.015625 0
v -0.25 0.015625 -0.25
v -0.25 -0.0875 0
v -0.25 -0.0875 -0.25
v -0.5 0.015625 -0.25
v -0.5 0.015625 0
v -0.5 -0.0875 -0.25
v -0.5 -0.0875 0
vt 0.25 1
vt 0.5 1
vt 0.5 0.75
vt 0.25 0.75
vt 0.25 1
vt 0.5 1
vt 0.5 0.75
vt 0.25 0.75
vt 0.25 1
vt 0.5 1
vt 0.5 0.75
vt 0.25 0.75
vt 0.25 1
vt 0.5 1
vt 0.5 0.75
vt 0.25 0.75
vt 0.25 1
vt 0.5 1
vt 0.5 0.75
vt 0.25 0.75
vt 0.25 1
vt 0.5 1
vt 0.5 0.75
vt 0.25 0.75
vn 0 0 -1
vn 1 0 0
vn 0 0 1
vn -1 0 0
vn 0 1 0
vn 0 -1 0
usemtl m_68a9886e-79b4-4145-9302-49580742863e
f 12/28/7 15/27/7 13/26/7 10/25/7
f 11/32/8 12/31/8 10/30/8 9/29/8
f 16/36/9 11/35/9 9/34/9 14/33/9
f 15/40/10 16/39/10 14/38/10 13/37/10
f 14/44/11 9/43/11 10/42/11 13/41/11
f 15/48/12 12/47/12 11/46/12 16/45/12
o Base_0_2
v -0.25 0.0050000000000000044 0.25
v -0.25 0.0050000000000000044 0
v -0.25 -0.0875 0.25
v -0.25 -0.0875 0
v -0.5 0.0050000000000000044 0
v -0.5 0.0050000000000000044 0.25
v -0.5 -0.0875 0
v -0.5 -0.0875 0.25
vt 0 1
vt 0.25 1
vt 0.25 0.75
vt 0 0.75
vt 0 1
vt 0.25 1
vt 0.25 0.75
vt 0 0.75
vt 0 1
vt 0.25 1
vt 0.25 0.75
vt 0 0.75
vt 0 1
vt 0.25 1
vt 0.25 0.75
vt 0 0.75
vt 0 1
vt 0.25 1
vt 0.25 0.75
vt 0 0.75
vt 0 1
vt 0.25 1
vt 0.25 0.75
vt 0 0.75
vn 0 0 -1
vn 1 0 0
vn 0 0 1
vn -1 0 0
vn 0 1 0
vn 0 -1 0
usemtl m_68a9886e-79b4-4145-9302-49580742863e
f 20/52/13 23/51/13 21/50/13 18/49/13
f 19/56/14 20/55/14 18/54/14 17/53/14
f 24/60/15 19/59/15 17/58/15 22/57/15
f 23/64/16 24/63/16 22/62/16 21/61/16
f 22/68/17 17/67/17 18/66/17 21/65/17
f 23/72/18 20/71/18 19/70/18 24/69/18
o Base_0_3
v -0.25 0.0050000000000000044 0.5
v -0.25 0.0050000000000000044 0.25
v -0.25 -0.0875 0.5
v -0.25 -0.0875 0.25
v -0.5 0.0050000000000000044 0.25
v -0.5 0.0050000000000000044 0.5
v -0.5 -0.0875 0.25
v -0.5 -0.0875 0.5
vt 0.75 1
vt 1 1
vt 1 0.75
vt 0.75 0.75
vt 0.75 1
vt 1 1
vt 1 0.75
vt 0.75 0.75
vt 0.75 1
vt 1 1
vt 1 0.75
vt 0.75 0.75
vt 0.75 1
vt 1 1
vt 1 0.75
vt 0.75 0.75
vt 0.75 1
vt 1 1
vt 1 0.75
vt 0.75 0.75
vt 0.75 1
vt 1 1
vt 1 0.75
vt 0.75 0.75
vn 0 0 -1
vn 1 0 0
vn 0 0 1
vn -1 0 0
vn 0 1 0
vn 0 -1 0
usemtl m_68a9886e-79b4-4145-9302-49580742863e
f 28/76/19 31/75/19 29/74/19 26/73/19
f 27/80/20 28/79/20 26/78/20 25/77/20
f 32/84/21 27/83/21 25/82/21 30/81/21
f 31/88/22 32/87/22 30/86/22 29/85/22
f 30/92/23 25/91/23 26/90/23 29/89/23
f 31/96/24 28/95/24 27/94/24 32/93/24
o Base_1_0
v 0 0.0050000000000000044 -0.25
v 0 0.0050000000000000044 -0.5
v 0 -0.0875 -0.25
v 0 -0.0875 -0.5
v -0.25 0.0050000000000000044 -0.5
v -0.25 0.0050000000000000044 -0.25
v -0.25 -0.0875 -0.5
v -0.25 -0.0875 -0.25
vt 0 1
vt 0.25 1
vt 0.25 0.75
vt 0 0.75
vt 0 1
vt 0.25 1
vt 0.25 0.75
vt 0 0.75
vt 0 1
vt 0.25 1
vt 0.25 0.75
vt 0 0.75
vt 0 1
vt 0.25 1
vt 0.25 0.75
vt 0 0.75
vt 0 1
vt 0.25 1
vt 0.25 0.75
vt 0 0.75
vt 0 1
vt 0.25 1
vt 0.25 0.75
vt 0 0.75
vn 0 0 -1
vn 1 0 0
vn 0 0 1
vn -1 0 0
vn 0 1 0
vn 0 -1 0
usemtl m_68a9886e-79b4-4145-9302-49580742863e
f 36/100/25 39/99/25 37/98/25 34/97/25
f 35/104/26 36/103/26 34/102/26 33/101/26
f 40/108/27 35/107/27 33/106/27 38/105/27
f 39/112/28 40/111/28 38/110/28 37/109/28
f 38/116/29 33/115/29 34/114/29 37/113/29
f 39/120/30 36/119/30 35/118/30 40/117/30
o Base_1_1
v 0 0.020000000000000004 0
v 0 0.020000000000000004 -0.25
v 0 -0.0875 0
v 0 -0.0875 -0.25
v -0.25 0.020000000000000004 -0.25
v -0.25 0.020000000000000004 0
v -0.25 -0.0875 -0.25
v -0.25 -0.0875 0
vt 0.75 1
vt 1 1
vt 1 0.75
vt 0.75 0.75
vt 0.75 1
vt 1 1
vt 1 0.75
vt 0.75 0.75
vt 0.75 1
vt 1 1
vt 1 0.75
vt 0.75 0.75
vt 0.75 1
vt 1 1
vt 1 0.75
vt 0.75 0.75
vt 0.75 1
vt 1 1
vt 1 0.75
vt 0.75 0.75
vt 0.75 1
vt 1 1
vt 1 0.75
vt 0.75 0.75
vn 0 0 -1
vn 1 0 0
vn 0 0 1
vn -1 0 0
vn 0 1 0
vn 0 -1 0
usemtl m_68a9886e-79b4-4145-9302-49580742863e
f 44/124/31 47/123/31 45/122/31 42/121/31
f 43/128/32 44/127/32 42/126/32 41/125/32
f 48/132/33 43/131/33 41/130/33 46/129/33
f 47/136/34 48/135/34 46/134/34 45/133/34
f 46/140/35 41/139/35 42/138/35 45/137/35
f 47/144/36 44/143/36 43/142/36 48/141/36
o Base_1_2
v 0 0 0.25
v 0 0 0
v 0 -0.0875 0.25
v 0 -0.0875 0
v -0.25 0 0
v -0.25 0 0.25
v -0.25 -0.0875 0
v -0.25 -0.0875 0.25
vt 0.25 1
vt 0.5 1
vt 0.5 0.75
vt 0.25 0.75
vt 0.25 1
vt 0.5 1
vt 0.5 0.75
vt 0.25 0.75
vt 0.25 1
vt 0.5 1
vt 0.5 0.75
vt 0.25 0.75
vt 0.25 1
vt 0.5 1
vt 0.5 0.75
vt 0.25 0.75
vt 0.25 1
vt 0.5 1
vt 0.5 0.75
vt 0.25 0.75
vt 0.25 1
vt 0.5 1
vt 0.5 0.75
vt 0.25 0.75
vn 0 0 -1
vn 1 0 0
vn 0 0 1
vn -1 0 0
vn 0 1 0
vn 0 -1 0
usemtl m_68a9886e-79b4-4145-9302-49580742863e
f 52/148/37 55/147/37 53/146/37 50/145/37
f 51/152/38 52/151/38 50/150/38 49/149/38
f 56/156/39 51/155/39 49/154/39 54/153/39
f 55/160/40 56/159/40 54/158/40 53/157/40
f 54/164/41 49/163/41 50/162/41 53/161/41
f 55/168/42 52/167/42 51/166/42 56/165/42
o Base_1_3
v 0 0.015625 0.5
v 0 0.015625 0.25
v 0 -0.0875 0.5
v 0 -0.0875 0.25
v -0.25 0.015625 0.25
v -0.25 0.015625 0.5
v -0.25 -0.0875 0.25
v -0.25 -0.0875 0.5
vt 0.75 1
vt 1 1
vt 1 0.75
vt 0.75 0.75
vt 0.75 1
vt 1 1
vt 1 0.75
vt 0.75 0.75
vt 0.75 1
vt 1 1
vt 1 0.75
vt 0.75 0.75
vt 0.75 1
vt 1 1
vt 1 0.75
vt 0.75 0.75
vt 0.75 1
vt 1 1
vt 1 0.75
vt 0.75 0.75
vt 0.75 1
vt 1 1
vt 1 0.75
vt 0.75 0.75
vn 0 0 -1
vn 1 0 0
vn 0 0 1
vn -1 0 0
vn 0 1 0
vn 0 -1 0
usemtl m_68a9886e-79b4-4145-9302-49580742863e
f 60/172/43 63/171/43 61/170/43 58/169/43
f 59/176/44 60/175/44 58/174/44 57/173/44
f 64/180/45 59/179/45 57/178/45 62/177/45
f 63/184/46 64/183/46 62/182/46 61/181/46
f 62/188/47 57/187/47 58/186/47 61/185/47
f 63/192/48 60/191/48 59/190/48 64/189/48
o Base_2_0
v 0.25 0.0050000000000000044 -0.25
v 0.25 0.0050000000000000044 -0.5
v 0.25 -0.0875 -0.25
v 0.25 -0.0875 -0.5
v 0 0.0050000000000000044 -0.5
v 0 0.0050000000000000044 -0.25
v 0 -0.0875 -0.5
v 0 -0.0875 -0.25
vt 0.5 1
vt 0.75 1
vt 0.75 0.75
vt 0.5 0.75
vt 0.5 1
vt 0.75 1
vt 0.75 0.75
vt 0.5 0.75
vt 0.5 1
vt 0.75 1
vt 0.75 0.75
vt 0.5 0.75
vt 0.5 1
vt 0.75 1
vt 0.75 0.75
vt 0.5 0.75
vt 0.5 1
vt 0.75 1
vt 0.75 0.75
vt 0.5 0.75
vt 0.5 1
vt 0.75 1
vt 0.75 0.75
vt 0.5 0.75
vn 0 0 -1
vn 1 0 0
vn 0 0 1
vn -1 0 0
vn 0 1 0
vn 0 -1 0
usemtl m_68a9886e-79b4-4145-9302-49580742863e
f 68/196/49 71/195/49 69/194/49 66/193/49
f 67/200/50 68/199/50 66/198/50 65/197/50
f 72/204/51 67/203/51 65/202/51 70/201/51
f 71/208/52 72/207/52 70/206/52 69/205/52
f 70/212/53 65/211/53 66/210/53 69/209/53
f 71/216/54 68/215/54 67/214/54 72/213/54
o Base_2_1
v 0.25 0 0
v 0.25 0 -0.25
v 0.25 -0.0875 0
v 0.25 -0.0875 -0.25
v 0 0 -0.25
v 0 0 0
v 0 -0.0875 -0.25
v 0 -0.0875 0
vt 0 1
vt 0.25 1
vt 0.25 0.75
vt 0 0.75
vt 0 1
vt 0.25 1
vt 0.25 0.75
vt 0 0.75
vt 0 1
vt 0.25 1
vt 0.25 0.75
vt 0 0.75
vt 0 1
vt 0.25 1
vt 0.25 0.75
vt 0 0.75
vt 0 1
vt 0.25 1
vt 0.25 0.75
vt 0 0.75
vt 0 1
vt 0.25 1
vt 0.25 0.75
vt 0 0.75
vn 0 0 -1
vn 1 0 0
vn 0 0 1
vn -1 0 0
vn 0 1 0
vn 0 -1 0
usemtl m_68a9886e-79b4-4145-9302-49580742863e
f 76/220/55 79/219/55 77/218/55 74/217/55
f 75/224/56 76/223/56 74/222/56 73/221/56
f 80/228/57 75/227/57 73/226/57 78/225/57
f 79/232/58 80/231/58 78/230/58 77/229/58
f 78/236/59 73/235/59 74/234/59 77/233/59
f 79/240/60 76/239/60 75/238/60 80/237/60
o Base_2_2
v 0.25 0.020000000000000004 0.25
v 0.25 0.020000000000000004 0
v 0.25 -0.0875 0.25
v 0.25 -0.0875 0
v 0 0.020000000000000004 0
v 0 0.020000000000000004 0.25
v 0 -0.0875 0
v 0 -0.0875 0.25
vt 0.75 1
vt 1 1
vt 1 0.75
vt 0.75 0.75
vt 0.75 1
vt 1 1
vt 1 0.75
vt 0.75 0.75
vt 0.75 1
vt 1 1
vt 1 0.75
vt 0.75 0.75
vt 0.75 1
vt 1 1
vt 1 0.75
vt 0.75 0.75
vt 0.75 1
vt 1 1
vt 1 0.75
vt 0.75 0.75
vt 0.75 1
vt 1 1
vt 1 0.75
vt 0.75 0.75
vn 0 0 -1
vn 1 0 0
vn 0 0 1
vn -1 0 0
vn 0 1 0
vn 0 -1 0
usemtl m_68a9886e-79b4-4145-9302-49580742863e
f 84/244/61 87/243/61 85/242/61 82/241/61
f 83/248/62 84/247/62 82/246/62 81/245/62
f 88/252/63 83/251/63 81/250/63 86/249/63
f 87/256/64 88/255/64 86/254/64 85/253/64
f 86/260/65 81/259/65 82/258/65 85/257/65
f 87/264/66 84/263/66 83/262/66 88/261/66
o Base_2_3
v 0.25 0.0050000000000000044 0.5
v 0.25 0.0050000000000000044 0.25
v 0.25 -0.0875 0.5
v 0.25 -0.0875 0.25
v 0 0.0050000000000000044 0.25
v 0 0.0050000000000000044 0.5
v 0 -0.0875 0.25
v 0 -0.0875 0.5
vt 0.25 1
vt 0.5 1
vt 0.5 0.75
vt 0.25 0.75
vt 0.25 1
vt 0.5 1
vt 0.5 0.75
vt 0.25 0.75
vt 0.25 1
vt 0.5 1
vt 0.5 0.75
vt 0.25 0.75
vt 0.25 1
vt 0.5 1
vt 0.5 0.75
vt 0.25 0.75
vt 0.25 1
vt 0.5 1
vt 0.5 0.75
vt 0.25 0.75
vt 0.25 1
vt 0.5 1
vt 0.5 0.75
vt 0.25 0.75
vn 0 0 -1
vn 1 0 0
vn 0 0 1
vn -1 0 0
vn 0 1 0
vn 0 -1 0
usemtl m_68a9886e-79b4-4145-9302-49580742863e
f 92/268/67 95/267/67 93/266/67 90/265/67
f 91/272/68 92/271/68 90/270/68 89/269/68
f 96/276/69 91/275/69 89/274/69 94/273/69
f 95/280/70 96/279/70 94/278/70 93/277/70
f 94/284/71 89/283/71 90/282/71 93/281/71
f 95/288/72 92/287/72 91/286/72 96/285/72
o Base_3_0
v 0.5 0.009999999999999995 -0.25
v 0.5 0.009999999999999995 -0.5
v 0.5 -0.0875 -0.25
v 0.5 -0.0875 -0.5
v 0.25 0.009999999999999995 -0.5
v 0.25 0.009999999999999995 -0.25
v 0.25 -0.0875 -0.5
v 0.25 -0.0875 -0.25
vt 0.5 1
vt 0.75 1
vt 0.75 0.75
vt 0.5 0.75
vt 0.5 1
vt 0.75 1
vt 0.75 0.75
vt 0.5 0.75
vt 0.5 1
vt 0.75 1
vt 0.75 0.75
vt 0.5 0.75
vt 0.5 1
vt 0.75 1
vt 0.75 0.75
vt 0.5 0.75
vt 0.5 1
vt 0.75 1
vt 0.75 0.75
vt 0.5 0.75
vt 0.5 1
vt 0.75 1
vt 0.75 0.75
vt 0.5 0.75
vn 0 0 -1
vn 1 0 0
vn 0 0 1
vn -1 0 0
vn 0 1 0
vn 0 -1 0
usemtl m_68a9886e-79b4-4145-9302-49580742863e
f 100/292/73 103/291/73 101/290/73 98/289/73
f 99/296/74 100/295/74 98/294/74 97/293/74
f 104/300/75 99/299/75 97/298/75 102/297/75
f 103/304/76 104/303/76 102/302/76 101/301/76
f 102/308/77 97/307/77 98/306/77 101/305/77
f 103/312/78 100/311/78 99/310/78 104/309/78
o Base_3_1
v 0.5 0 0
v 0.5 0 -0.25
v 0.5 -0.0875 0
v 0.5 -0.0875 -0.25
v 0.25 0 -0.25
v 0.25 0 0
v 0.25 -0.0875 -0.25
v 0.25 -0.0875 0
vt 0.25 0.5
vt 0.5 0.5
vt 0.5 0.25
vt 0.25 0.25
vt 0.25 0.5
vt 0.5 0.5
vt 0.5 0.25
vt 0.25 0.25
vt 0.25 0.5
vt 0.5 0.5
vt 0.5 0.25
vt 0.25 0.25
vt 0.25 0.5
vt 0.5 0.5
vt 0.5 0.25
vt 0.25 0.25
vt 0.25 0.5
vt 0.5 0.5
vt 0.5 0.25
vt 0.25 0.25
vt 0.25 0.5
vt 0.5 0.5
vt 0.5 0.25
vt 0.25 0.25
vn 0 0 -1
vn 1 0 0
vn 0 0 1
vn -1 0 0
vn 0 1 0
vn 0 -1 0
usemtl m_68a9886e-79b4-4145-9302-49580742863e
f 108/316/79 111/315/79 109/314/79 106/313/79
f 107/320/80 108/319/80 106/318/80 105/317/80
f 112/324/81 107/323/81 105/322/81 110/321/81
f 111/328/82 112/327/82 110/326/82 109/325/82
f 110/332/83 105/331/83 106/330/83 109/329/83
f 111/336/84 108/335/84 107/334/84 112/333/84
o Base_3_2
v 0.5 0.015625 0.25
v 0.5 0.015625 0
v 0.5 -0.0875 0.25
v 0.5 -0.0875 0
v 0.25 0.015625 0
v 0.25 0.015625 0.25
v 0.25 -0.0875 0
v 0.25 -0.0875 0.25
vt 0.5 1
vt 0.75 1
vt 0.75 0.75
vt 0.5 0.75
vt 0.5 1
vt 0.75 1
vt 0.75 0.75
vt 0.5 0.75
vt 0.5 1
vt 0.75 1
vt 0.75 0.75
vt 0.5 0.75
vt 0.5 1
vt 0.75 1
vt 0.75 0.75
vt 0.5 0.75
vt 0.5 1
vt 0.75 1
vt 0.75 0.75
vt 0.5 0.75
vt 0.5 1
vt 0.75 1
vt 0.75 0.75
vt 0.5 0.75
vn 0 0 -1
vn 1 0 0
vn 0 0 1
vn -1 0 0
vn 0 1 0
vn 0 -1 0
usemtl m_68a9886e-79b4-4145-9302-49580742863e
f 116/340/85 119/339/85 117/338/85 114/337/85
f 115/344/86 116/343/86 114/342/86 113/341/86
f 120/348/87 115/347/87 113/346/87 118/345/87
f 119/352/88 120/351/88 118/350/88 117/349/88
f 118/356/89 113/355/89 114/354/89 117/353/89
f 119/360/90 116/359/90 115/358/90 120/357/90
o Base_3_3
v 0.5 0.0050000000000000044 0.5
v 0.5 0.0050000000000000044 0.25
v 0.5 -0.0875 0.5
v 0.5 -0.0875 0.25
v 0.25 0.0050000000000000044 0.25
v 0.25 0.0050000000000000044 0.5
v 0.25 -0.0875 0.25
v 0.25 -0.0875 0.5
vt 0.25 1
vt 0.5 1
vt 0.5 0.75
vt 0.25 0.75
vt 0.25 1
vt 0.5 1
vt 0.5 0.75
vt 0.25 0.75
vt 0.25 1
vt 0.5 1
vt 0.5 0.75
vt 0.25 0.75
vt 0.25 1
vt 0.5 1
vt 0.5 0.75
vt 0.25 0.75
vt 0.25 1
vt 0.5 1
vt 0.5 0.75
vt 0.25 0.75
vt 0.25 1
vt 0.5 1
vt 0.5 0.75
vt 0.25 0.75
vn 0 0 -1
vn 1 0 0
vn 0 0 1
vn -1 0 0
vn 0 1 0
vn 0 -1 0
usemtl m_68a9886e-79b4-4145-9302-49580742863e
f 124/364/91 127/363/91 125/362/91 122/361/91
f 123/368/92 124/367/92 122/366/92 121/365/92
f 128/372/93 123/371/93 121/370/93 126/369/93
f 127/376/94 128/375/94 126/374/94 125/373/94
f 126/380/95 121/379/95 122/378/95 125/377/95
f 127/384/96 124/383/96 123/382/96 128/381/96
o Parche_0
v -0.015625 0.01 -0.056249999999999994
v -0.015625 0.01 -0.19375
v -0.015625 0.0031250000000000006 -0.056249999999999994
v -0.015625 0.0031250000000000006 -0.19375
v -0.296875 0.01 -0.19375
v -0.296875 0.01 -0.056249999999999994
v -0.296875 0.0031250000000000006 -0.19375
v -0.296875 0.0031250000000000006 -0.056249999999999994
vt 0 0.75
vt 0.25 0.75
vt 0.25 0.5
vt 0 0.5
vt 0 0.75
vt 0.25 0.75
vt 0.25 0.5
vt 0 0.5
vt 0 0.75
vt 0.25 0.75
vt 0.25 0.5
vt 0 0.5
vt 0 0.75
vt 0.25 0.75
vt 0.25 0.5
vt 0 0.5
vt 0 0.75
vt 0.25 0.75
vt 0.25 0.5
vt 0 0.5
vt 0 0.75
vt 0.25 0.75
vt 0.25 0.5
vt 0 0.5
vn 0 0 -1
vn 1 0 0
vn 0 0 1
vn -1 0 0
vn 0 1 0
vn 0 -1 0
usemtl m_68a9886e-79b4-4145-9302-49580742863e
f 132/388/97 135/387/97 133/386/97 130/385/97
f 131/392/98 132/391/98 130/390/98 129/389/98
f 136/396/99 131/395/99 129/394/99 134/393/99
f 135/400/100 136/399/100 134/398/100 133/397/100
f 134/404/101 129/403/101 130/402/101 133/401/101
f 135/408/102 132/407/102 131/406/102 136/405/102
o Parche_1
v 0.35 0.01 0.2125
v 0.35 0.01 0.0875
v 0.35 0.0031250000000000006 0.2125
v 0.35 0.0031250000000000006 0.0875
v 0.125 0.01 0.0875
v 0.125 0.01 0.2125
v 0.125 0.0031250000000000006 0.0875
v 0.125 0.0031250000000000006 0.2125
vt 0.25 0.75
vt 0.5 0.75
vt 0.5 0.5
vt 0.25 0.5
vt 0.25 0.75
vt 0.5 0.75
vt 0.5 0.5
vt 0.25 0.5
vt 0.25 0.75
vt 0.5 0.75
vt 0.5 0.5
vt 0.25 0.5
vt 0.25 0.75
vt 0.5 0.75
vt 0.5 0.5
vt 0.25 0.5
vt 0.25 0.75
vt 0.5 0.75
vt 0.5 0.5
vt 0.25 0.5
vt 0.25 0.75
vt 0.5 0.75
vt 0.5 0.5
vt 0.25 0.5
vn 0 0 -1
vn 1 0 0
vn 0 0 1
vn -1 0 0
vn 0 1 0
vn 0 -1 0
usemtl m_68a9886e-79b4-4145-9302-49580742863e
f 140/412/103 143/411/103 141/410/103 138/409/103
f 139/416/104 140/415/104 138/414/104 137/413/104
f 144/420/105 139/419/105 137/418/105 142/417/105
f 143/424/106 144/423/106 142/422/106 141/421/106
f 142/428/107 137/427/107 138/426/107 141/425/107
f 143/432/108 140/431/108 139/430/108 144/429/108
o Parche_2
v 0.20625 0.01 -0.2625
v 0.20625 0.01 -0.3625
v 0.20625 0.0031250000000000006 -0.2625
v 0.20625 0.0031250000000000006 -0.3625
v 0.018750000000000003 0.01 -0.3625
v 0.018750000000000003 0.01 -0.2625
v 0.018750000000000003 0.0031250000000000006 -0.3625
v 0.018750000000000003 0.0031250000000000006 -0.2625
vt 0.75 1
vt 1 1
vt 1 0.75
vt 0.75 0.75
vt 0.75 1
vt 1 1
vt 1 0.75
vt 0.75 0.75
vt 0.75 1
vt 1 1
vt 1 0.75
vt 0.75 0.75
vt 0.75 1
vt 1 1
vt 1 0.75
vt 0.75 0.75
vt 0.75 1
vt 1 1
vt 1 0.75
vt 0.75 0.75
vt 0.75 1
vt 1 1
vt 1 0.75
vt 0.75 0.75
vn 0 0 -1
vn 1 0 0
vn 0 0 1
vn -1 0 0
vn 0 1 0
vn 0 -1 0
usemtl m_68a9886e-79b4-4145-9302-49580742863e
f 148/436/109 151/435/109 149/434/109 146/433/109
f 147/440/110 148/439/110 146/438/110 145/437/110
f 152/444/111 147/443/111 145/442/111 150/441/111
f 151/448/112 152/447/112 150/446/112 149/445/112
f 150/452/113 145/451/113 146/450/113 149/449/113
f 151/456/114 148/455/114 147/454/114 152/453/114
o Crater_0_Centro
v -0.22562499999999996 0.00625 0.274375
v -0.22562499999999996 0.00625 0.150625
v -0.22562499999999996 0.0025000000000000005 0.274375
v -0.22562499999999996 0.0025000000000000005 0.150625
v -0.349375 0.00625 0.150625
v -0.349375 0.00625 0.274375
v -0.349375 0.0025000000000000005 0.150625
v -0.349375 0.0025000000000000005 0.274375
vt 0.25 0.75
vt 0.5 0.75
vt 0.5 0.5
vt 0.25 0.5
vt 0.25 0.75
vt 0.5 0.75
vt 0.5 0.5
vt 0.25 0.5
vt 0.25 0.75
vt 0.5 0.75
vt 0.5 0.5
vt 0.25 0.5
vt 0.25 0.75
vt 0.5 0.75
vt 0.5 0.5
vt 0.25 0.5
vt 0.25 0.75
vt 0.5 0.75
vt 0.5 0.5
vt 0.25 0.5
vt 0.25 0.75
vt 0.5 0.75
vt 0.5 0.5
vt 0.25 0.5
vn 0 0 -1
vn 1 0 0
vn 0 0 1
vn -1 0 0
vn 0 1 0
vn 0 -1 0
usemtl m_68a9886e-79b4-4145-9302-49580742863e
f 156/460/115 159/459/115 157/458/115 154/457/115
f 155/464/116 156/463/116 154/462/116 153/461/116
f 160/468/117 155/467/117 153/466/117 158/465/117
f 159/472/118 160/471/118 158/470/118 157/469/118
f 158/476/119 153/475/119 154/474/119 157/473/119
f 159/480/120 156/479/120 155/478/120 160/477/120
o Crater_0_Rim_0
v -0.1873125 0.0179375 0.2329375
v -0.1873125 0.0179375 0.1920625
v -0.1873125 0.006250000000000001 0.2329375
v -0.1873125 0.006250000000000001 0.1920625
v -0.22568750000000004 0.0179375 0.1920625
v -0.22568750000000004 0.0179375 0.2329375
v -0.22568750000000004 0.006250000000000001 0.1920625
v -0.22568750000000004 0.006250000000000001 0.2329375
vt 0.25 0.5
vt 0.5 0.5
vt 0.5 0.25
vt 0.25 0.25
vt 0.25 0.5
vt 0.5 0.5
vt 0.5 0.25
vt 0.25 0.25
vt 0.25 0.5
vt 0.5 0.5
vt 0.5 0.25
vt 0.25 0.25
vt 0.25 0.5
vt 0.5 0.5
vt 0.5 0.25
vt 0.25 0.25
vt 0.25 0.5
vt 0.5 0.5
vt 0.5 0.25
vt 0.25 0.25
vt 0.25 0.5
vt 0.5 0.5
vt 0.5 0.25
vt 0.25 0.25
vn 0 0 -1
vn 1 0 0
vn 0 0 1
vn -1 0 0
vn 0 1 0
vn 0 -1 0
usemtl m_68a9886e-79b4-4145-9302-49580742863e
f 164/484/121 167/483/121 165/482/121 162/481/121
f 163/488/122 164/487/122 162/486/122 161/485/122
f 168/492/123 163/491/123 161/490/123 166/489/123
f 167/496/124 168/495/124 166/494/124 165/493/124
f 166/500/125 161/499/125 162/498/125 165/497/125
f 167/504/126 164/503/126 163/502/126 168/501/126
o Crater_0_Rim_1
v -0.21006249999999999 0.0225625 0.2989375
v -0.21006249999999999 0.0225625 0.25275
v -0.21006249999999999 0.00625 0.2989375
v -0.21006249999999999 0.00625 0.25275
v -0.2639375 0.0225625 0.25275
v -0.2639375 0.0225625 0.2989375
v -0.2639375 0.00625 0.25275
v -0.2639375 0.00625 0.2989375
vt 0.25 0.5
vt 0.5 0.5
vt 0.5 0.25
vt 0.25 0.25
vt 0.25 0.5
vt 0.5 0.5
vt 0.5 0.25
vt 0.25 0.25
vt 0.25 0.5
vt 0.5 0.5
vt 0.5 0.25
vt 0.25 0.25
vt 0.25 0.5
vt 0.5 0.5
vt 0.5 0.25
vt 0.25 0.25
vt 0.25 0.5
vt 0.5 0.5
vt 0.5 0.25
vt 0.25 0.25
vt 0.25 0.5
vt 0.5 0.5
vt 0.5 0.25
vt 0.25 0.25
vn 0 0 -1
vn 1 0 0
vn 0 0 1
vn -1 0 0
vn 0 1 0
vn 0 -1 0
usemtl m_68a9886e-79b4-4145-9302-49580742863e
f 172/508/127 175/507/127 173/506/127 170/505/127
f 171/512/128 172/511/128 170/510/128 169/509/128
f 176/516/129 171/515/129 169/514/129 174/513/129
f 175/520/130 176/519/130 174/518/130 173/517/130
f 174/524/131 169/523/131 170/522/131 173/521/131
f 175/528/132 172/527/132 171/526/132 176/525/132
o Crater_0_Rim_2
v -0.282875 0.0243125 0.318
v -0.282875 0.0243125 0.2649375
v -0.282875 0.00625 0.318
v -0.282875 0.00625 0.2649375
v -0.3281875000000001 0.0243125 0.2649375
v -0.3281875000000001 0.0243125 0.318
v -0.3281875000000001 0.00625 0.2649375
v -0.3281875000000001 0.00625 0.318
vt 0.25 0.5
vt 0.5 0.5
vt 0.5 0.25
vt 0.25 0.25
vt 0.25 0.5
vt 0.5 0.5
vt 0.5 0.25
vt 0.25 0.25
vt 0.25 0.5
vt 0.5 0.5
vt 0.5 0.25
vt 0.25 0.25
vt 0.25 0.5
vt 0.5 0.5
vt 0.5 0.25
vt 0.25 0.25
vt 0.25 0.5
vt 0.5 0.5
vt 0.5 0.25
vt 0.25 0.25
vt 0.25 0.5
vt 0.5 0.5
vt 0.5 0.25
vt 0.25 0.25
vn 0 0 -1
vn 1 0 0
vn 0 0 1
vn -1 0 0
vn 0 1 0
vn 0 -1 0
usemtl m_68a9886e-79b4-4145-9302-49580742863e
f 180/532/133 183/531/133 181/530/133 178/529/133
f 179/536/134 180/535/134 178/534/134 177/533/134
f 184/540/135 179/539/135 177/538/135 182/537/135
f 183/544/136 184/543/136 182/542/136 181/541/136
f 182/548/137 177/547/137 178/546/137 181/545/137
f 183/552/138 180/551/138 179/550/138 184/549/138
o Crater_0_Rim_3
v -0.3331875 0.0118125 0.2674375
v -0.3331875 0.0118125 0.227875
v -0.3331875 0.006250000000000001 0.2674375
v -0.3331875 0.006250000000000001 0.227875
v -0.38775 0.0118125 0.227875
v -0.38775 0.0118125 0.2674375
v -0.38775 0.006250000000000001 0.227875
v -0.38775 0.006250000000000001 0.2674375
vt 0.75 1
vt 1 1
vt 1 0.75
vt 0.75 0.75
vt 0.75 1
vt 1 1
vt 1 0.75
vt 0.75 0.75
vt 0.75 1
vt 1 1
vt 1 0.75
vt 0.75 0.75
vt 0.75 1
vt 1 1
vt 1 0.75
vt 0.75 0.75
vt 0.75 1
vt 1 1
vt 1 0.75
vt 0.75 0.75
vt 0.75 1
vt 1 1
vt 1 0.75
vt 0.75 0.75
vn 0 0 -1
vn 1 0 0
vn 0 0 1
vn -1 0 0
vn 0 1 0
vn 0 -1 0
usemtl m_68a9886e-79b4-4145-9302-49580742863e
f 188/556/139 191/555/139 189/554/139 186/553/139
f 187/560/140 188/559/140 186/558/140 185/557/140
f 192/564/141 187/563/141 185/562/141 190/561/141
f 191/568/142 192/567/142 190/566/142 189/565/142
f 190/572/143 185/571/143 186/570/143 189/569/143
f 191/576/144 188/575/144 187/574/144 192/573/144
o Crater_0_Rim_4
v -0.34068750000000003 0.014625 0.1989375
v -0.34068750000000003 0.014625 0.15575
v -0.34068750000000003 0.00625 0.1989375
v -0.34068750000000003 0.00625 0.15575
v -0.38025 0.014625 0.15575
v -0.38025 0.014625 0.1989375
v -0.38025 0.00625 0.15575
v -0.38025 0.00625 0.1989375
vt 0.75 1
vt 1 1
vt 1 0.75
vt 0.75 0.75
vt 0.75 1
vt 1 1
vt 1 0.75
vt 0.75 0.75
vt 0.75 1
vt 1 1
vt 1 0.75
vt 0.75 0.75
vt 0.75 1
vt 1 1
vt 1 0.75
vt 0.75 0.75
vt 0.75 1
vt 1 1
vt 1 0.75
vt 0.75 0.75
vt 0.75 1
vt 1 1
vt 1 0.75
vt 0.75 0.75
vn 0 0 -1
vn 1 0 0
vn 0 0 1
vn -1 0 0
vn 0 1 0
vn 0 -1 0
usemtl m_68a9886e-79b4-4145-9302-49580742863e
f 196/580/145 199/579/145 197/578/145 194/577/145
f 195/584/146 196/583/146 194/582/146 193/581/146
f 200/588/147 195/587/147 193/586/147 198/585/147
f 199/592/148 200/591/148 198/590/148 197/589/148
f 198/596/149 193/595/149 194/594/149 197/593/149
f 199/600/150 196/599/150 195/598/150 200/597/150
o Crater_0_Rim_5
v -0.2866875 0.0201875 0.1530625
v -0.2866875 0.0201875 0.11399999999999999
v -0.2866875 0.006250000000000001 0.1530625
v -0.2866875 0.006250000000000001 0.11399999999999999
v -0.3243125 0.0201875 0.11399999999999999
v -0.3243125 0.0201875 0.1530625
v -0.3243125 0.006250000000000001 0.11399999999999999
v -0.3243125 0.006250000000000001 0.1530625
vt 0.75 1
vt 1 1
vt 1 0.75
vt 0.75 0.75
vt 0.75 1
vt 1 1
vt 1 0.75
vt 0.75 0.75
vt 0.75 1
vt 1 1
vt 1 0.75
vt 0.75 0.75
vt 0.75 1
vt 1 1
vt 1 0.75
vt 0.75 0.75
vt 0.75 1
vt 1 1
vt 1 0.75
vt 0.75 0.75
vt 0.75 1
vt 1 1
vt 1 0.75
vt 0.75 0.75
vn 0 0 -1
vn 1 0 0
vn 0 0 1
vn -1 0 0
vn 0 1 0
vn 0 -1 0
usemtl m_68a9886e-79b4-4145-9302-49580742863e
f 204/604/151 207/603/151 205/602/151 202/601/151
f 203/608/152 204/607/152 202/606/152 201/605/152
f 208/612/153 203/611/153 201/610/153 206/609/153
f 207/616/154 208/615/154 206/614/154 205/613/154
f 206/620/155 201/619/155 202/618/155 205/617/155
f 207/624/156 204/623/156 203/622/156 208/621/156
o Crater_0_Rim_6
v -0.2069375 0.012 0.1725625
v -0.2069375 0.012 0.12574999999999997
v -0.2069375 0.006250000000000001 0.1725625
v -0.2069375 0.006250000000000001 0.12574999999999997
v -0.2670625 0.012 0.12574999999999997
v -0.2670625 0.012 0.1725625
v -0.2670625 0.006250000000000001 0.12574999999999997
v -0.2670625 0.006250000000000001 0.1725625
vt 0.25 0.5
vt 0.5 0.5
vt 0.5 0.25
vt 0.25 0.25
vt 0.25 0.5
vt 0.5 0.5
vt 0.5 0.25
vt 0.25 0.25
vt 0.25 0.5
vt 0.5 0.5
vt 0.5 0.25
vt 0.25 0.25
vt 0.25 0.5
vt 0.5 0.5
vt 0.5 0.25
vt 0.25 0.25
vt 0.25 0.5
vt 0.5 0.5
vt 0.5 0.25
vt 0.25 0.25
vt 0.25 0.5
vt 0.5 0.5
vt 0.5 0.25
vt 0.25 0.25
vn 0 0 -1
vn 1 0 0
vn 0 0 1
vn -1 0 0
vn 0 1 0
vn 0 -1 0
usemtl m_68a9886e-79b4-4145-9302-49580742863e
f 212/628/157 215/627/157 213/626/157 210/625/157
f 211/632/158 212/631/158 210/630/158 209/629/158
f 216/636/159 211/635/159 209/634/159 214/633/159
f 215/640/160 216/639/160 214/638/160 213/637/160
f 214/644/161 209/643/161 210/642/161 213/641/161
f 215/648/162 212/647/162 211/646/162 216/645/162
o Crater_1_Centro
v 0.348125 0.00625 -0.06437499999999999
v 0.348125 0.00625 -0.160625
v 0.348125 0.0025000000000000005 -0.06437499999999999
v 0.348125 0.0025000000000000005 -0.160625
v 0.25187500000000007 0.00625 -0.160625
v 0.25187500000000007 0.00625 -0.06437499999999999
v 0.25187500000000007 0.0025000000000000005 -0.160625
v 0.25187500000000007 0.0025000000000000005 -0.06437499999999999
vt 0.25 0.75
vt 0.5 0.75
vt 0.5 0.5
vt 0.25 0.5
vt 0.25 0.75
vt 0.5 0.75
vt 0.5 0.5
vt 0.25 0.5
vt 0.25 0.75
vt 0.5 0.75
vt 0.5 0.5
vt 0.25 0.5
vt 0.25 0.75
vt 0.5 0.75
vt 0.5 0.5
vt 0.25 0.5
vt 0.25 0.75
vt 0.5 0.75
vt 0.5 0.5
vt 0.25 0.5
vt 0.25 0.75
vt 0.5 0.75
vt 0.5 0.5
vt 0.25 0.5
vn 0 0 -1
vn 1 0 0
vn 0 0 1
vn -1 0 0
vn 0 1 0
vn 0 -1 0
usemtl m_68a9886e-79b4-4145-9302-49580742863e
f 220/652/163 223/651/163 221/650/163 218/649/163
f 219/656/164 220/655/164 218/654/164 217/653/164
f 224/660/165 219/659/165 217/658/165 222/657/165
f 223/664/166 224/663/166 222/662/166 221/661/166
f 222/668/167 217/667/167 218/666/167 221/665/167
f 223/672/168 220/671/168 219/670/168 224/669/168
o Crater_1_Rim_0
v 0.3845625 0.0170625 -0.0884375
v 0.3845625 0.0170625 -0.1365625
v 0.3845625 0.0062499999999999995 -0.0884375
v 0.3845625 0.0062499999999999995 -0.1365625
v 0.3414375 0.0170625 -0.1365625
v 0.3414375 0.0170625 -0.0884375
v 0.3414375 0.0062499999999999995 -0.1365625
v 0.3414375 0.0062499999999999995 -0.0884375
vt 0.25 0.5
vt 0.5 0.5
vt 0.5 0.25
vt 0.25 0.25
vt 0.25 0.5
vt 0.5 0.5
vt 0.5 0.25
vt 0.25 0.25
vt 0.25 0.5
vt 0.5 0.5
vt 0.5 0.25
vt 0.25 0.25
vt 0.25 0.5
vt 0.5 0.5
vt 0.5 0.25
vt 0.25 0.25
vt 0.25 0.5
vt 0.5 0.5
vt 0.5 0.25
vt 0.25 0.25
vt 0.25 0.5
vt 0.5 0.5
vt 0.5 0.25
vt 0.25 0.25
vn 0 0 -1
vn 1 0 0
vn 0 0 1
vn -1 0 0
vn 0 1 0
vn 0 -1 0
usemtl m_68a9886e-79b4-4145-9302-49580742863e
f 228/676/169 231/675/169 229/674/169 226/673/169
f 227/680/170 228/679/170 226/678/170 225/677/170
f 232/684/171 227/683/171 225/682/171 230/681/171
f 231/688/172 232/687/172 230/686/172 229/685/172
f 230/692/173 225/691/173 226/690/173 229/689/173
f 231/696/174 228/695/174 227/694/174 232/693/174
o Crater_1_Rim_1
v 0.36068749999999994 0.025562499999999995 -0.033937499999999995
v 0.36068749999999994 0.025562499999999995 -0.0925625
v 0.36068749999999994 0.006249999999999999 -0.033937499999999995
v 0.36068749999999994 0.006249999999999999 -0.0925625
v 0.317875 0.025562499999999995 -0.0925625
v 0.317875 0.025562499999999995 -0.033937499999999995
v 0.317875 0.006249999999999999 -0.0925625
v 0.317875 0.006249999999999999 -0.033937499999999995
vt 0 0.75
vt 0.25 0.75
vt 0.25 0.5
vt 0 0.5
vt 0 0.75
vt 0.25 0.75
vt 0.25 0.5
vt 0 0.5
vt 0 0.75
vt 0.25 0.75
vt 0.25 0.5
vt 0 0.5
vt 0 0.75
vt 0.25 0.75
vt 0.25 0.5
vt 0 0.5
vt 0 0.75
vt 0.25 0.75
vt 0.25 0.5
vt 0 0.5
vt 0 0.75
vt 0.25 0.75
vt 0.25 0.5
vt 0 0.5
vn 0 0 -1
vn 1 0 0
vn 0 0 1
vn -1 0 0
vn 0 1 0
vn 0 -1 0
usemtl m_68a9886e-79b4-4145-9302-49580742863e
f 236/700/175 239/699/175 237/698/175 234/697/175
f 235/704/176 236/703/176 234/702/176 233/701/176
f 240/708/177 235/707/177 233/706/177 238/705/177
f 239/712/178 240/711/178 238/710/178 237/709/178
f 238/716/179 233/715/179 234/714/179 237/713/179
f 239/720/180 236/719/180 235/718/180 240/717/180
o Crater_1_Rim_2
v 0.305875 0.021125 -0.0250625
v 0.305875 0.021125 -0.0770625
v 0.305875 0.006250000000000001 -0.0250625
v 0.305875 0.006250000000000001 -0.0770625
v 0.2660625 0.021125 -0.0770625
v 0.2660625 0.021125 -0.0250625
v 0.2660625 0.006250000000000001 -0.0770625
v 0.2660625 0.006250000000000001 -0.0250625
vt 0.75 1
vt 1 1
vt 1 0.75
vt 0.75 0.75
vt 0.75 1
vt 1 1
vt 1 0.75
vt 0.75 0.75
vt 0.75 1
vt 1 1
vt 1 0.75
vt 0.75 0.75
vt 0.75 1
vt 1 1
vt 1 0.75
vt 0.75 0.75
vt 0.75 1
vt 1 1
vt 1 0.75
vt 0.75 0.75
vt 0.75 1
vt 1 1
vt 1 0.75
vt 0.75 0.75
vn 0 0 -1
vn 1 0 0
vn 0 0 1
vn -1 0 0
vn 0 1 0
vn 0 -1 0
usemtl m_68a9886e-79b4-4145-9302-49580742863e
f 244/724/181 247/723/181 245/722/181 242/721/181
f 243/728/182 244/727/182 242/726/182 241/725/182
f 248/732/183 243/731/183 241/730/183 246/729/183
f 247/736/184 248/735/184 246/734/184 245/733/184
f 246/740/185 241/739/185 242/738/185 245/737/185
f 247/744/186 244/743/186 243/742/186 248/741/186
o Crater_1_Rim_3
v 0.2715625 0.0200625 -0.06618749999999998
v 0.2715625 0.0200625 -0.104125
v 0.2715625 0.006250000000000001 -0.06618749999999998
v 0.2715625 0.006250000000000001 -0.104125
v 0.2149375 0.0200625 -0.104125
v 0.2149375 0.0200625 -0.06618749999999998
v 0.2149375 0.006250000000000001 -0.104125
v 0.2149375 0.006250000000000001 -0.06618749999999998
vt 0.75 1
vt 1 1
vt 1 0.75
vt 0.75 0.75
vt 0.75 1
vt 1 1
vt 1 0.75
vt 0.75 0.75
vt 0.75 1
vt 1 1
vt 1 0.75
vt 0.75 0.75
vt 0.75 1
vt 1 1
vt 1 0.75
vt 0.75 0.75
vt 0.75 1
vt 1 1
vt 1 0.75
vt 0.75 0.75
vt 0.75 1
vt 1 1
vt 1 0.75
vt 0.75 0.75
vn 0 0 -1
vn 1 0 0
vn 0 0 1
vn -1 0 0
vn 0 1 0
vn 0 -1 0
usemtl m_68a9886e-79b4-4145-9302-49580742863e
f 252/748/187 255/747/187 253/746/187 250/745/187
f 251/752/188 252/751/188 250/750/188 249/749/188
f 256/756/189 251/755/189 249/754/189 254/753/189
f 255/760/190 256/759/190 254/758/190 253/757/190
f 254/764/191 249/763/191 250/762/191 253/761/191
f 255/768/192 252/767/192 251/766/192 256/765/192
o Crater_1_Rim_4
v 0.274375 0.0223125 -0.11600000000000002
v 0.274375 0.0223125 -0.163625
v 0.274375 0.00625 -0.11600000000000002
v 0.274375 0.00625 -0.163625
v 0.212125 0.0223125 -0.163625
v 0.212125 0.0223125 -0.11600000000000002
v 0.212125 0.00625 -0.163625
v 0.212125 0.00625 -0.11600000000000002
vt 0.25 0.5
vt 0.5 0.5
vt 0.5 0.25
vt 0.25 0.25
vt 0.25 0.5
vt 0.5 0.5
vt 0.5 0.25
vt 0.25 0.25
vt 0.25 0.5
vt 0.5 0.5
vt 0.5 0.25
vt 0.25 0.25
vt 0.25 0.5
vt 0.5 0.5
vt 0.5 0.25
vt 0.25 0.25
vt 0.25 0.5
vt 0.5 0.5
vt 0.5 0.25
vt 0.25 0.25
vt 0.25 0.5
vt 0.5 0.5
vt 0.5 0.25
vt 0.25 0.25
vn 0 0 -1
vn 1 0 0
vn 0 0 1
vn -1 0 0
vn 0 1 0
vn 0 -1 0
usemtl m_68a9886e-79b4-4145-9302-49580742863e
f 260/772/193 263/771/193 261/770/193 258/769/193
f 259/776/194 260/775/194 258/774/194 257/773/194
f 264/780/195 259/779/195 257/778/195 262/777/195
f 263/784/196 264/783/196 262/782/196 261/781/196
f 262/788/197 257/787/197 258/786/197 261/785/197
f 263/792/198 260/791/198 259/790/198 264/789/198
o Crater_1_Rim_5
v 0.3168125 0.0158125 -0.14425
v 0.3168125 0.0158125 -0.20356249999999998
v 0.3168125 0.0062499999999999995 -0.14425
v 0.3168125 0.0062499999999999995 -0.20356249999999998
v 0.255125 0.0158125 -0.20356249999999998
v 0.255125 0.0158125 -0.14425
v 0.255125 0.0062499999999999995 -0.20356249999999998
v 0.255125 0.0062499999999999995 -0.14425
vt 0 0.75
vt 0.25 0.75
vt 0.25 0.5
vt 0 0.5
vt 0 0.75
vt 0.25 0.75
vt 0.25 0.5
vt 0 0.5
vt 0 0.75
vt 0.25 0.75
vt 0.25 0.5
vt 0 0.5
vt 0 0.75
vt 0.25 0.75
vt 0.25 0.5
vt 0 0.5
vt 0 0.75
vt 0.25 0.75
vt 0.25 0.5
vt 0 0.5
vt 0 0.75
vt 0.25 0.75
vt 0.25 0.5
vt 0 0.5
vn 0 0 -1
vn 1 0 0
vn 0 0 1
vn -1 0 0
vn 0 1 0
vn 0 -1 0
usemtl m_68a9886e-79b4-4145-9302-49580742863e
f 268/796/199 271/795/199 269/794/199 266/793/199
f 267/800/200 268/799/200 266/798/200 265/797/200
f 272/804/201 267/803/201 265/802/201 270/801/201
f 271/808/202 272/807/202 270/806/202 269/805/202
f 270/812/203 265/811/203 266/810/203 269/809/203
f 271/816/204 268/815/204 267/814/204 272/813/204
o Crater_1_Rim_6
v 0.36224999999999996 0.012 -0.1330625
v 0.36224999999999996 0.012 -0.1904375
v 0.36224999999999996 0.006250000000000001 -0.1330625
v 0.36224999999999996 0.006250000000000001 -0.1904375
v 0.3163125 0.012 -0.1904375
v 0.3163125 0.012 -0.1330625
v 0.3163125 0.006250000000000001 -0.1904375
v 0.3163125 0.006250000000000001 -0.1330625
vt 0 0.75
vt 0.25 0.75
vt 0.25 0.5
vt 0 0.5
vt 0 0.75
vt 0.25 0.75
vt 0.25 0.5
vt 0 0.5
vt 0 0.75
vt 0.25 0.75
vt 0.25 0.5
vt 0 0.5
vt 0 0.75
vt 0.25 0.75
vt 0.25 0.5
vt 0 0.5
vt 0 0.75
vt 0.25 0.75
vt 0.25 0.5
vt 0 0.5
vt 0 0.75
vt 0.25 0.75
vt 0.25 0.5
vt 0 0.5
vn 0 0 -1
vn 1 0 0
vn 0 0 1
vn -1 0 0
vn 0 1 0
vn 0 -1 0
usemtl m_68a9886e-79b4-4145-9302-49580742863e
f 276/820/205 279/819/205 277/818/205 274/817/205
f 275/824/206 276/823/206 274/822/206 273/821/206
f 280/828/207 275/827/207 273/826/207 278/825/207
f 279/832/208 280/831/208 278/830/208 277/829/208
f 278/836/209 273/835/209 274/834/209 277/833/209
f 279/840/210 276/839/210 275/838/210 280/837/210
o Huella_I_0
v -0.08405817857779534 0.013124999999999998 -0.33946037415414376
v -0.08098088923981032 0.013124999999999998 -0.4331598554244812
v -0.08405817857779534 0.007499999999999999 -0.33946037415414376
v -0.08098088923981032 0.007499999999999999 -0.4331598554244812
v -0.15344182142220464 0.013124999999999998 -0.43553962584585626
v -0.15651911076018965 0.013124999999999998 -0.3418401445755188
v -0.15344182142220464 0.007499999999999999 -0.43553962584585626
v -0.15651911076018965 0.007499999999999999 -0.3418401445755188
vt 0.75 0.75
vt 1 0.75
vt 1 0.5
vt 0.75 0.5
vt 0.75 0.75
vt 1 0.75
vt 1 0.5
vt 0.75 0.5
vt 0.75 0.75
vt 1 0.75
vt 1 0.5
vt 0.75 0.5
vt 0.75 0.75
vt 1 0.75
vt 1 0.5
vt 0.75 0.5
vt 0.75 0.75
vt 1 0.75
vt 1 0.5
vt 0.75 0.5
vt 0.75 0.75
vt 1 0.75
vt 1 0.5
vt 0.75 0.5
vn 0.03282441960517354 0 -0.9994611335502664
vn 0.9994611335502664 0 0.03282441960517354
vn -0.03282441960517354 0 0.9994611335502664
vn -0.9994611335502664 0 -0.03282441960517354
vn 0 1 0
vn 0 -1 0
usemtl m_68a9886e-79b4-4145-9302-49580742863e
f 284/844/211 287/843/211 285/842/211 282/841/211
f 283/848/212 284/847/212 282/846/212 281/845/212
f 288/852/213 283/851/213 281/850/213 286/849/213
f 287/856/214 288/855/214 286/854/214 285/853/214
f 286/860/215 281/859/215 282/858/215 285/857/215
f 287/864/216 284/863/216 283/862/216 288/861/216
o Huella_I_1
v -0.07167670859050043 0.013124999999999998 -0.16789634231809555
v -0.07733023862991542 0.013124999999999998 -0.2614757209123854
v -0.07167670859050043 0.007499999999999999 -0.16789634231809555
v -0.07733023862991542 0.007499999999999999 -0.2614757209123854
v -0.14969829140949956 0.013124999999999998 -0.25710365768190446
v -0.1440447613700846 0.013124999999999998 -0.16352427908761463
v -0.14969829140949956 0.007499999999999999 -0.25710365768190446
v -0.1440447613700846 0.007499999999999999 -0.16352427908761463
vt 0.75 0.75
vt 1 0.75
vt 1 0.5
vt 0.75 0.5
vt 0.75 0.75
vt 1 0.75
vt 1 0.5
vt 0.75 0.5
vt 0.75 0.75
vt 1 0.75
vt 1 0.5
vt 0.75 0.5
vt 0.75 0.75
vt 1 0.75
vt 1 0.5
vt 0.75 0.5
vt 0.75 0.75
vt 1 0.75
vt 1 0.5
vt 0.75 0.5
vt 0.75 0.75
vt 1 0.75
vt 1 0.5
vt 0.75 0.5
vn -0.06030432042042651 0 -0.9981800383390919
vn 0.9981800383390919 0 -0.06030432042042651
vn 0.06030432042042651 0 0.9981800383390919
vn -0.9981800383390919 0 0.06030432042042651
vn 0 1 0
vn 0 -1 0
usemtl m_68a9886e-79b4-4145-9302-49580742863e
f 292/868/217 295/867/217 293/866/217 290/865/217
f 291/872/218 292/871/218 290/870/218 289/869/218
f 296/876/219 291/875/219 289/874/219 294/873/219
f 295/880/220 296/879/220 294/878/220 293/877/220
f 294/884/221 289/883/221 290/882/221 293/881/221
f 295/888/222 292/887/222 291/886/222 296/885/222
o Huella_I_2
v -0.07055623270486902 0.013124999999999998 0.009657849636040078
v -0.0698209968873893 0.013124999999999998 -0.0840892672705224
v -0.07055623270486902 0.007499999999999999 0.009657849636040078
v -0.0698209968873893 0.007499999999999999 -0.0840892672705224
v -0.14231876729513096 0.013124999999999998 -0.08465784963604009
v -0.14305400311261068 0.013124999999999998 0.009089267270522408
v -0.14231876729513096 0.007499999999999999 -0.08465784963604009
v -0.14305400311261068 0.007499999999999999 0.009089267270522408
vt 0.75 0.75
vt 1 0.75
vt 1 0.5
vt 0.75 0.5
vt 0.75 0.75
vt 1 0.75
vt 1 0.5
vt 0.75 0.5
vt 0.75 0.75
vt 1 0.75
vt 1 0.5
vt 0.75 0.5
vt 0.75 0.75
vt 1 0.75
vt 1 0.5
vt 0.75 0.5
vt 0.75 0.75
vt 1 0.75
vt 1 0.5
vt 0.75 0.5
vt 0.75 0.75
vt 1 0.75
vt 1 0.5
vt 0.75 0.5
vn 0.007842515386450574 0 -0.9999692470033332
vn 0.9999692470033332 0 0.007842515386450574
vn -0.007842515386450574 0 0.9999692470033332
vn -0.9999692470033332 0 -0.007842515386450574
vn 0 1 0
vn 0 -1 0
usemtl m_68a9886e-79b4-4145-9302-49580742863e
f 300/892/223 303/891/223 301/890/223 298/889/223
f 299/896/224 300/895/224 298/894/224 297/893/224
f 304/900/225 299/899/225 297/898/225 302/897/225
f 303/904/226 304/903/226 302/902/226 301/901/226
f 302/908/227 297/907/227 298/906/227 301/905/227
f 303/912/228 300/911/228 299/910/228 304/909/228
o Huella_I_3
v -0.07556169729693177 0.013124999999999998 0.1871299861407597
v -0.06804661230248388 0.013124999999999998 0.09368167958828
v -0.07556169729693177 0.007499999999999999 0.1871299861407597
v -0.06804661230248388 0.007499999999999999 0.09368167958828
v -0.14031330270306822 0.013124999999999998 0.08787001385924031
v -0.1478283876975161 0.013124999999999998 0.18131832041172002
v -0.14031330270306822 0.007499999999999999 0.08787001385924031
v -0.1478283876975161 0.007499999999999999 0.18131832041172002
vt 0.75 0.75
vt 1 0.75
vt 1 0.5
vt 0.75 0.5
vt 0.75 0.75
vt 1 0.75
vt 1 0.5
vt 0.75 0.5
vt 0.75 0.75
vt 1 0.75
vt 1 0.5
vt 0.75 0.5
vt 0.75 0.75
vt 1 0.75
vt 1 0.5
vt 0.75 0.5
vt 0.75 0.75
vt 1 0.75
vt 1 0.5
vt 0.75 0.5
vt 0.75 0.75
vt 1 0.75
vt 1 0.5
vt 0.75 0.5
vn 0.08016090660744414 0 -0.9967819365597836
vn 0.9967819365597836 0 0.08016090660744414
vn -0.08016090660744414 0 0.9967819365597836
vn -0.9967819365597836 0 -0.08016090660744414
vn 0 1 0
vn 0 -1 0
usemtl m_68a9886e-79b4-4145-9302-49580742863e
f 308/916/229 311/915/229 309/914/229 306/913/229
f 307/920/230 308/919/230 306/918/230 305/917/230
f 312/924/231 307/923/231 305/922/231 310/921/231
f 311/928/232 312/927/232 310/926/232 309/925/232
f 310/932/233 305/931/233 306/930/233 309/929/233
f 311/936/234 308/935/234 307/934/234 312/933/234
o Huella_I_4
v -0.08173668361734027 0.013124999999999998 0.36183349677259774
v -0.07507176119919827 0.013124999999999998 0.2683207098974321
v -0.08173668361734027 0.007499999999999999 0.36183349677259774
v -0.07507176119919827 0.007499999999999999 0.2683207098974321
v -0.1473883163826597 0.013124999999999998 0.26316650322740226
v -0.15405323880080168 0.013124999999999998 0.3566792901025679
v -0.1473883163826597 0.007499999999999999 0.26316650322740226
v -0.15405323880080168 0.007499999999999999 0.3566792901025679
vt 0.75 0.75
vt 1 0.75
vt 1 0.5
vt 0.75 0.5
vt 0.75 0.75
vt 1 0.75
vt 1 0.5
vt 0.75 0.5
vt 0.75 0.75
vt 1 0.75
vt 1 0.5
vt 0.75 0.5
vt 0.75 0.75
vt 1 0.75
vt 1 0.5
vt 0.75 0.5
vt 0.75 0.75
vt 1 0.75
vt 1 0.5
vt 0.75 0.5
vt 0.75 0.75
vt 1 0.75
vt 1 0.5
vt 0.75 0.5
vn 0.0710925057935147 0 -0.9974697266684334
vn 0.9974697266684334 0 0.0710925057935147
vn -0.0710925057935147 0 0.9974697266684334
vn -0.9974697266684334 0 -0.0710925057935147
vn 0 1 0
vn 0 -1 0
usemtl m_68a9886e-79b4-4145-9302-49580742863e
f 316/940/235 319/939/235 317/938/235 314/937/235
f 315/944/236 316/943/236 314/942/236 313/941/236
f 320/948/237 315/947/237 313/946/237 318/945/237
f 319/952/238 320/951/238 318/950/238 317/949/238
f 318/956/239 313/955/239 314/954/239 317/953/239
f 319/960/240 316/959/240 315/958/240 320/957/240
o Huella_D_0
v 0.15120229041221844 0.013124999999999998 -0.33791999423153485
v 0.1585732752879765 0.013124999999999998 -0.4313797774645456
v 0.15120229041221844 0.007499999999999999 -0.33791999423153485
v 0.1585732752879765 0.007499999999999999 -0.4313797774645456
v 0.08629770958778156 0.013124999999999998 -0.4370800057684652
v 0.07892672471202349 0.013124999999999998 -0.34362022253545443
v 0.08629770958778156 0.007499999999999999 -0.4370800057684652
v 0.07892672471202349 0.007499999999999999 -0.34362022253545443
vt 0.75 0.75
vt 1 0.75
vt 1 0.5
vt 0.75 0.5
vt 0.75 0.75
vt 1 0.75
vt 1 0.5
vt 0.75 0.5
vt 0.75 0.75
vt 1 0.75
vt 1 0.5
vt 0.75 0.5
vt 0.75 0.75
vt 1 0.75
vt 1 0.5
vt 0.75 0.5
vt 0.75 0.75
vt 1 0.75
vt 1 0.5
vt 0.75 0.5
vt 0.75 0.75
vt 1 0.75
vt 1 0.5
vt 0.75 0.5
vn 0.07862383867475282 0 -0.9969043544854473
vn 0.9969043544854473 0 0.07862383867475282
vn -0.07862383867475282 0 0.9969043544854473
vn -0.9969043544854473 0 -0.07862383867475282
vn 0 1 0
vn 0 -1 0
usemtl m_68a9886e-79b4-4145-9302-49580742863e
f 324/964/241 327/963/241 325/962/241 322/961/241
f 323/968/242 324/967/242 322/966/242 321/965/242
f 328/972/243 323/971/243 321/970/243 326/969/243
f 327/976/244 328/975/244 326/974/244 325/973/244
f 326/980/245 321/979/245 322/978/245 325/977/245
f 327/984/246 324/983/246 323/982/246 328/981/246
o Huella_D_1
v 0.16499505771521153 0.013124999999999998 -0.1671853179275796
v 0.16106625136677766 0.013124999999999998 -0.260852958981876
v 0.16499505771521153 0.007499999999999999 -0.1671853179275796
v 0.16106625136677766 0.007499999999999999 -0.260852958981876
v 0.08862994228478846 0.013124999999999998 -0.2578146820724204
v 0.09255874863322233 0.013124999999999998 -0.16414704101812408
v 0.08862994228478846 0.007499999999999999 -0.2578146820724204
v 0.09255874863322233 0.007499999999999999 -0.16414704101812408
vt 0.75 0.75
vt 1 0.75
vt 1 0.5
vt 0.75 0.5
vt 0.75 0.75
vt 1 0.75
vt 1 0.5
vt 0.75 0.5
vt 0.75 0.75
vt 1 0.75
vt 1 0.5
vt 0.75 0.5
vt 0.75 0.75
vt 1 0.75
vt 1 0.5
vt 0.75 0.5
vt 0.75 0.75
vt 1 0.75
vt 1 0.5
vt 0.75 0.5
vt 0.75 0.75
vt 1 0.75
vt 1 0.5
vt 0.75 0.5
vn -0.041907267716627984 0 -0.9991215045791613
vn 0.9991215045791613 0 -0.041907267716627984
vn 0.041907267716627984 0 0.9991215045791613
vn -0.9991215045791613 0 0.041907267716627984
vn 0 1 0
vn 0 -1 0
usemtl m_68a9886e-79b4-4145-9302-49580742863e
f 332/988/247 335/987/247 333/986/247 330/985/247
f 331/992/248 332/991/248 330/990/248 329/989/248
f 336/996/249 331/995/249 329/994/249 334/993/249
f 335/1000/250 336/999/250 334/998/250 333/997/250
f 334/1004/251 329/1003/251 330/1002/251 333/1001/251
f 335/1008/252 332/1007/252 331/1006/252 336/1005/252
o Huella_D_2
v 0.16337454173666338 0.013124999999999998 0.012171521859191334
v 0.1710096257991288 0.013124999999999998 -0.08126705685088477
v 0.16337454173666338 0.007499999999999999 0.012171521859191334
v 0.1710096257991288 0.007499999999999999 -0.08126705685088477
v 0.0987504582633366 0.013124999999999998 -0.08717152185919134
v 0.09111537420087121 0.013124999999999998 0.0062670568508847585
v 0.0987504582633366 0.007499999999999999 -0.08717152185919134
v 0.09111537420087121 0.007499999999999999 0.0062670568508847585
vt 0.75 0.75
vt 1 0.75
vt 1 0.5
vt 0.75 0.5
vt 0.75 0.75
vt 1 0.75
vt 1 0.5
vt 0.75 0.5
vt 0.75 0.75
vt 1 0.75
vt 1 0.5
vt 0.75 0.5
vt 0.75 0.75
vt 1 0.75
vt 1 0.5
vt 0.75 0.5
vt 0.75 0.75
vt 1 0.75
vt 1 0.5
vt 0.75 0.5
vt 0.75 0.75
vt 1 0.75
vt 1 0.5
vt 0.75 0.5
vn 0.08144089666629754 0 -0.9966781729074784
vn 0.9966781729074784 0 0.08144089666629754
vn -0.08144089666629754 0 0.9966781729074784
vn -0.9966781729074784 0 -0.08144089666629754
vn 0 1 0
vn 0 -1 0
usemtl m_68a9886e-79b4-4145-9302-49580742863e
f 340/1012/253 343/1011/253 341/1010/253 338/1009/253
f 339/1016/254 340/1015/254 338/1014/254 337/1013/254
f 344/1020/255 339/1019/255 337/1018/255 342/1017/255
f 343/1024/256 344/1023/256 342/1022/256 341/1021/256
f 342/1028/257 337/1027/257 338/1026/257 341/1025/257
f 343/1032/258 340/1031/258 339/1030/258 344/1029/258
o Huella_D_3
v 0.16461524368236538 0.013124999999999998 0.18527691163457927
v 0.16698656026866296 0.013124999999999998 0.09155690652549088
v 0.16461524368236538 0.007499999999999999 0.18527691163457927
v 0.16698656026866296 0.007499999999999999 0.09155690652549088
v 0.09450975631763461 0.013124999999999998 0.08972308836542077
v 0.09213843973133704 0.013124999999999998 0.18344309347450916
v 0.09450975631763461 0.007499999999999999 0.08972308836542077
v 0.09213843973133704 0.007499999999999999 0.18344309347450916
vt 0.75 0.75
vt 1 0.75
vt 1 0.5
vt 0.75 0.5
vt 0.75 0.75
vt 1 0.75
vt 1 0.5
vt 0.75 0.5
vt 0.75 0.75
vt 1 0.75
vt 1 0.5
vt 0.75 0.5
vt 0.75 0.75
vt 1 0.75
vt 1 0.5
vt 0.75 0.5
vt 0.75 0.75
vt 1 0.75
vt 1 0.5
vt 0.75 0.5
vt 0.75 0.75
vt 1 0.75
vt 1 0.5
vt 0.75 0.5
vn 0.025294043587173996 0 -0.9996800544969426
vn 0.9996800544969426 0 0.025294043587173996
vn -0.025294043587173996 0 0.9996800544969426
vn -0.9996800544969426 0 -0.025294043587173996
vn 0 1 0
vn 0 -1 0
usemtl m_68a9886e-79b4-4145-9302-49580742863e
f 348/1036/259 351/1035/259 349/1034/259 346/1033/259
f 347/1040/260 348/1039/260 346/1038/260 345/1037/260
f 352/1044/261 347/1043/261 345/1042/261 350/1041/261
f 351/1048/262 352/1047/262 350/1046/262 349/1045/262
f 350/1052/263 345/1051/263 346/1050/263 349/1049/263
f 351/1056/264 348/1055/264 347/1054/264 352/1053/264
o Huella_D_4
v 0.16253843679098923 0.013124999999999998 0.35658053913322835
v 0.15564002223547224 0.013124999999999998 0.2630846869438385
v 0.16253843679098923 0.007499999999999999 0.35658053913322835
v 0.15564002223547224 0.007499999999999999 0.2630846869438385
v 0.08333656320901078 0.013124999999999998 0.26841946086677165
v 0.09023497776452775 0.013124999999999998 0.3619153130561615
v 0.08333656320901078 0.007499999999999999 0.26841946086677165
v 0.09023497776452775 0.007499999999999999 0.3619153130561615
vt 0.75 0.75
vt 1 0.75
vt 1 0.5
vt 0.75 0.5
vt 0.75 0.75
vt 1 0.75
vt 1 0.5
vt 0.75 0.5
vt 0.75 0.75
vt 1 0.75
vt 1 0.5
vt 0.75 0.5
vt 0.75 0.75
vt 1 0.75
vt 1 0.5
vt 0.75 0.5
vt 0.75 0.75
vt 1 0.75
vt 1 0.5
vt 0.75 0.5
vt 0.75 0.75
vt 1 0.75
vt 1 0.5
vt 0.75 0.5
vn -0.07358308859218105 0 -0.9972890900201582
vn 0.9972890900201582 0 -0.07358308859218105
vn 0.07358308859218105 0 0.9972890900201582
vn -0.9972890900201582 0 0.07358308859218105
vn 0 1 0
vn 0 -1 0
usemtl m_68a9886e-79b4-4145-9302-49580742863e
f 356/1060/265 359/1059/265 357/1058/265 354/1057/265
f 355/1064/266 356/1063/266 354/1062/266 353/1061/266
f 360/1068/267 355/1067/267 353/1066/267 358/1065/267
f 359/1072/268 360/1071/268 358/1070/268 357/1069/268
f 358/1076/269 353/1075/269 354/1074/269 357/1073/269
f 359/1080/270 356/1079/270 355/1078/270 360/1077/270
o Piedra_0
v 0.19853684781955203 0.03196306939646429 0.28526851890257954
v 0.18449684572251399 0.033283447061963845 0.2575915636837406
v 0.19846096062811447 0.00954938777434515 0.28423773108423156
v 0.18442095853107643 0.010869765439844706 0.2565607758653926
v 0.16476100125561866 0.032890702574702384 0.2675844521523588
v 0.1788010033526567 0.03157032490920283 0.29526140737119777
v 0.1646851140641811 0.010477020952583248 0.26655366433401084
v 0.17872511616121914 0.009156643287083693 0.2942306195528498
vt 0.5 0.75
vt 0.75 0.75
vt 0.75 0.5
vt 0.5 0.5
vt 0.5 0.75
vt 0.75 0.75
vt 0.75 0.5
vt 0.5 0.5
vt 0.5 0.75
vt 0.75 0.75
vt 0.75 0.5
vt 0.5 0.5
vt 0.5 0.75
vt 0.75 0.75
vt 0.75 0.5
vt 0.5 0.5
vt 0.5 0.75
vt 0.75 0.75
vt 0.75 0.5
vt 0.5 0.5
vt 0.5 0.75
vt 0.75 0.75
vt 0.75 0.5
vt 0.5 0.5
vn -0.4519920192205407 0.04250712806437204 -0.8910086187151376
vn 0.8920155691252122 0.017751163266054595 -0.4516559759827447
vn 0.4519920192205407 -0.04250712806437204 0.8910086187151376
vn -0.8920155691252122 -0.017751163266054595 0.4516559759827447
vn 0.0033821589498632754 0.9989384566961177 0.045940404160356614
vn -0.0033821589498632754 -0.9989384566961177 -0.045940404160356614
usemtl m_68a9886e-79b4-4145-9302-49580742863e
f 364/1084/271 367/1083/271 365/1082/271 362/1081/271
f 363/1088/272 364/1087/272 362/1086/272 361/1085/272
f 368/1092/273 363/1091/273 361/1090/273 366/1089/273
f 367/1096/274 368/1095/274 366/1094/274 365/1093/274
f 366/1100/275 361/1099/275 362/1098/275 365/1097/275
f 367/1104/276 364/1103/276 363/1102/276 368/1101/276
o Piedra_1
v -0.4049307062742145 0.0242259972684368 0.2837247552691233
v -0.4185094818969339 0.02864478582072617 0.2673188520535731
v -0.4083326665920023 0.006654659675583348 0.2818077886042665
v -0.4219114422147217 0.011073448227872719 0.2654018853887163
v -0.4454173334079977 0.03134534032441666 0.2903172113957335
v -0.4318385577852783 0.026926551772127286 0.3067231146112837
v -0.4488192937257855 0.013774002731563206 0.2884002447308767
v -0.43524051810306613 0.009355214179273836 0.3048061479464269
vt 0.5 0.75
vt 0.75 0.75
vt 0.75 0.5
vt 0.5 0.5
vt 0.5 0.75
vt 0.75 0.75
vt 0.75 0.5
vt 0.5 0.5
vt 0.5 0.75
vt 0.75 0.75
vt 0.75 0.5
vt 0.5 0.5
vt 0.5 0.75
vt 0.75 0.75
vt 0.75 0.5
vt 0.5 0.5
vt 0.5 0.75
vt 0.75 0.75
vt 0.75 0.5
vt 0.5 0.5
vt 0.5 0.75
vt 0.75 0.75
vt 0.75 0.5
vt 0.5 0.5
vn -0.6243115228836496 0.203162692059281 -0.7542944007149492
vn 0.7579676481989811 -0.0760719578504363 -0.6478411082298708
vn 0.6243115228836496 -0.203162692059281 0.7542944007149492
vn -0.7579676481989811 0.0760719578504363 0.6478411082298708
vn 0.18899779543265627 0.9761854218251917 0.10649814804760031
vn -0.18899779543265627 -0.9761854218251917 -0.10649814804760031
usemtl m_68a9886e-79b4-4145-9302-49580742863e
f 372/1108/277 375/1107/277 373/1106/277 370/1105/277
f 371/1112/278 372/1111/278 370/1110/278 369/1109/278
f 376/1116/279 371/1115/279 369/1114/279 374/1113/279
f 375/1120/280 376/1119/280 374/1118/280 373/1117/280
f 374/1124/281 369/1123/281 370/1122/281 373/1121/281
f 375/1128/282 372/1127/282 371/1126/282 376/1125/282
o Piedra_2
v 0.42892800272724735 0.021580131526090035 -0.1599764734291411
v 0.40584979008523986 0.025965721564726707 -0.1845561947714041
v 0.42787052792403774 0.008194155561404352 -0.16137196420784009
v 0.40479231528203025 0.012579745600041024 -0.18595168555010305
v 0.37020883705287344 0.025304998442280107 -0.15121033943449427
v 0.39328704969488093 0.02091940840364343 -0.1266306180922313
v 0.3691513622496638 0.011919022477594424 -0.15260583021319327
v 0.39222957489167126 0.00753343243895775 -0.12802610887093027
vt 0.5 0.75
vt 0.75 0.75
vt 0.75 0.5
vt 0.5 0.5
vt 0.5 0.75
vt 0.75 0.75
vt 0.75 0.5
vt 0.5 0.5
vt 0.5 0.75
vt 0.75 0.75
vt 0.75 0.5
vt 0.5 0.5
vt 0.5 0.75
vt 0.75 0.75
vt 0.75 0.5
vt 0.5 0.5
vt 0.5 0.75
vt 0.75 0.75
vt 0.75 0.5
vt 0.5 0.5
vt 0.5 0.75
vt 0.75 0.75
vt 0.75 0.5
vt 0.5 0.5
vn -0.6787709600590432 0.12898794231284327 -0.7229329806547932
vn 0.7301603694210793 0.013535941048841978 -0.6831417226511607
vn 0.6787709600590432 -0.12898794231284327 0.7229329806547932
vn -0.7301603694210793 -0.013535941048841978 0.6831417226511607
vn 0.07833146690441732 0.9915537751619026 0.10336968731103556
vn -0.07833146690441732 -0.9915537751619026 -0.10336968731103556
usemtl m_68a9886e-79b4-4145-9302-49580742863e
f 380/1132/283 383/1131/283 381/1130/283 378/1129/283
f 379/1136/284 380/1135/284 378/1134/284 377/1133/284
f 384/1140/285 379/1139/285 377/1138/285 382/1137/285
f 383/1144/286 384/1143/286 382/1142/286 381/1141/286
f 382/1148/287 377/1147/287 378/1146/287 381/1145/287
f 383/1152/288 380/1151/288 379/1150/288 384/1149/288
o Piedra_3
v -0.311678407975467 0.023535369103921552 0.4298972003270066
v -0.31454578762430846 0.026612799089111717 0.38258380308441087
v -0.3125278089122782 0.007900662116989747 0.42893174099004316
v -0.3153951885611197 0.010978092102179912 0.38161834374744735
v -0.3379061011897523 0.02778976613105942 0.38407608487961903
v -0.3350387215409108 0.024712336145869256 0.43138948212221484
v -0.3387555021265635 0.012155059144127615 0.38311062554265557
v -0.33588812247772204 0.00907762915893745 0.4304240227852513
vt 0.5 0.75
vt 0.75 0.75
vt 0.75 0.5
vt 0.5 0.5
vt 0.5 0.75
vt 0.75 0.75
vt 0.75 0.5
vt 0.5 0.5
vt 0.5 0.75
vt 0.75 0.75
vt 0.75 0.5
vt 0.5 0.5
vt 0.5 0.75
vt 0.75 0.75
vt 0.75 0.5
vt 0.5 0.5
vt 0.5 0.75
vt 0.75 0.75
vt 0.75 0.5
vt 0.5 0.5
vt 0.5 0.75
vt 0.75 0.75
vt 0.75 0.5
vt 0.5 0.5
vn -0.06036588734403075 0.06478799968821387 -0.9960715208967515
vn 0.9967067121256036 -0.05021726045643536 -0.06367068992888299
vn 0.06036588734403075 -0.06478799968821387 0.9960715208967515
vn -0.9967067121256036 0.05021726045643536 0.06367068992888299
vn 0.05414507963737068 0.9966347083303142 0.06154322466699525
vn -0.05414507963737068 -0.9966347083303142 -0.06154322466699525
usemtl m_68a9886e-79b4-4145-9302-49580742863e
f 388/1156/289 391/1155/289 389/1154/289 386/1153/289
f 387/1160/290 388/1159/290 386/1158/290 385/1157/290
f 392/1164/291 387/1163/291 385/1162/291 390/1161/291
f 391/1168/292 392/1167/292 390/1166/292 389/1165/292
f 390/1172/293 385/1171/293 386/1170/293 389/1169/293
f 391/1176/294 388/1175/294 387/1174/294 392/1173/294
o Piedra_4
v 0.06890037587565626 0.04286756566608497 -0.43173599586451283
v 0.06366379002254541 0.03941430956924482 -0.46845405260683837
v 0.07154108745718946 0.012645252892401433 -0.4292702588138926
v 0.06630450160407861 0.009191996795561284 -0.46598831555621806
v 0.0421509762487336 0.037797322172197015 -0.4652339048554018
v 0.047387562101844444 0.041250578269037164 -0.4285158481130763
v 0.0447916878302668 0.007575009398513483 -0.4627681678047815
v 0.050028273683377644 0.011028265495353632 -0.426050111062456
vt 0.5 0.75
vt 0.75 0.75
vt 0.75 0.5
vt 0.5 0.5
vt 0.5 0.75
vt 0.75 0.75
vt 0.75 0.5
vt 0.5 0.5
vt 0.5 0.75
vt 0.75 0.75
vt 0.75 0.5
vt 0.5 0.5
vt 0.5 0.75
vt 0.75 0.75
vt 0.75 0.5
vt 0.5 0.5
vt 0.5 0.75
vt 0.75 0.75
vt 0.75 0.5
vt 0.5 0.5
vt 0.5 0.75
vt 0.75 0.75
vt 0.75 0.5
vt 0.5 0.5
vn -0.14057948598955286 -0.09270486166013821 -0.9857196440892755
vn 0.9862608033839221 0.07413122737181897 -0.14762855020912655
vn 0.14057948598955286 0.09270486166013821 0.9857196440892755
vn -0.9862608033839221 -0.07413122737181897 0.14762855020912655
vn -0.08675849138507437 0.9929301937965843 -0.08100984149881826
vn 0.08675849138507437 -0.9929301937965843 0.08100984149881826
usemtl m_68a9886e-79b4-4145-9302-49580742863e
f 396/1180/295 399/1179/295 397/1178/295 394/1177/295
f 395/1184/296 396/1183/296 394/1182/296 393/1181/296
f 400/1188/297 395/1187/297 393/1186/297 398/1185/297
f 399/1192/298 400/1191/298 398/1190/298 397/1189/298
f 398/1196/299 393/1195/299 394/1194/299 397/1193/299
f 399/1200/300 396/1199/300 395/1198/300 400/1197/300
o Piedra_5
v 0.16123129010538953 0.038148362931925105 0.3545414456926062
v 0.13765675338910816 0.03410937911387263 0.32797096718110386
v 0.16371804653629735 0.012387013346188457 0.35625107027853276
v 0.14014350982001597 0.00834802952813598 0.3296805917670304
v 0.12269756311838134 0.033551799204046856 0.34132819883060184
v 0.14627209983466272 0.03759078302209933 0.3678986773421042
v 0.12518431954928916 0.0077904496183102065 0.34303782341652844
v 0.14875885626557053 0.011829433436362684 0.3696083019280308
vt 0.5 0.75
vt 0.75 0.75
vt 0.75 0.5
vt 0.5 0.5
vt 0.5 0.75
vt 0.75 0.75
vt 0.75 0.5
vt 0.5 0.5
vt 0.5 0.75
vt 0.75 0.75
vt 0.75 0.5
vt 0.5 0.5
vt 0.5 0.75
vt 0.75 0.75
vt 0.75 0.5
vt 0.5 0.5
vt 0.5 0.75
vt 0.75 0.75
vt 0.75 0.5
vt 0.5 0.5
vt 0.5 0.75
vt 0.75 0.75
vt 0.75 0.5
vt 0.5 0.5
vn -0.6594276004554243 -0.11297856833713243 -0.7432301681539127
vn 0.7456294215938595 0.027792145038044745 -0.6657810167974083
vn 0.6594276004554243 0.11297856833713243 0.7432301681539127
vn -0.7456294215938595 -0.027792145038044745 0.6657810167974083
vn -0.09587494673379546 0.9932086587271962 -0.06591323704777138
vn 0.09587494673379546 -0.9932086587271962 0.06591323704777138
usemtl m_68a9886e-79b4-4145-9302-49580742863e
f 404/1204/301 407/1203/301 405/1202/301 402/1201/301
f 403/1208/302 404/1207/302 402/1206/302 401/1205/302
f 408/1212/303 403/1211/303 401/1210/303 406/1209/303
f 407/1216/304 408/1215/304 406/1214/304 405/1213/304
f 406/1220/305 401/1219/305 402/1218/305 405/1217/305
f 407/1224/306 404/1223/306 403/1222/306 408/1221/306
o Piedra_6
v -0.20786275416244102 0.02383582346348483 0.0011350867022261804
v -0.21350450881890026 0.022120988987606397 -0.022322643438745668
v -0.20765134303293425 0.010868537315362638 0.002032190535145752
v -0.2132930976893935 0.009153702839484206 -0.021425539605826098
v -0.23155246760646733 0.02212701131061861 -0.0179824183773111
v -0.22591071295000809 0.02384184578649704 0.005475311763660749
v -0.2313410564769606 0.009159725162496416 -0.01708531454439153
v -0.22569930182050135 0.010874559638374848 0.006372415596580321
vt 0.5 0.75
vt 0.75 0.75
vt 0.75 0.5
vt 0.5 0.5
vt 0.5 0.75
vt 0.75 0.75
vt 0.75 0.5
vt 0.5 0.5
vt 0.5 0.75
vt 0.75 0.75
vt 0.75 0.5
vt 0.5 0.5
vt 0.5 0.75
vt 0.75 0.75
vt 0.75 0.5
vt 0.5 0.5
vt 0.5 0.75
vt 0.75 0.75
vt 0.75 0.5
vt 0.5 0.5
vt 0.5 0.75
vt 0.75 0.75
vt 0.75 0.5
vt 0.5 0.5
vn -0.23325083850994324 -0.0708975493903228 -0.9698286363192496
vn 0.9722806080844234 -0.00032443490974875047 -0.23381683832644162
vn 0.23325083850994324 0.0708975493903228 0.9698286363192496
vn -0.9722806080844234 0.00032443490974875047 0.23381683832644162
vn -0.016262394577442024 0.9974835498555533 -0.06900798714765927
vn 0.016262394577442024 -0.9974835498555533 0.06900798714765927
usemtl m_68a9886e-79b4-4145-9302-49580742863e
f 412/1228/307 415/1227/307 413/1226/307 410/1225/307
f 411/1232/308 412/1231/308 410/1230/308 409/1229/308
f 416/1236/309 411/1235/309 409/1234/309 414/1233/309
f 415/1240/310 416/1239/310 414/1238/310 413/1237/310
f 414/1244/311 409/1243/311 410/1242/311 413/1241/311
f 415/1248/312 412/1247/312 411/1246/312 416/1245/312
o Piedra_7
v -0.03770454174312818 0.04872338128216516 0.0056393197151696625
v -0.05282019972195595 0.041114119079434616 -0.021298593508523016
v -0.029782373338014513 0.018134885829121976 0.009834414312455318
v -0.04489803131684228 0.010525623626391431 -0.017103498911237358
v -0.09486568457409847 0.0337458185608957 0.004375722592724013
v -0.07975002659527071 0.04135508076362625 0.03131363581641669
v -0.08694351616898481 0.0031573231078525256 0.008570817190009669
v -0.07182785819015704 0.010766585310583067 0.035508730413702345
vt 0.5 0.75
vt 0.75 0.75
vt 0.75 0.5
vt 0.5 0.5
vt 0.5 0.75
vt 0.75 0.75
vt 0.75 0.5
vt 0.5 0.5
vt 0.5 0.75
vt 0.75 0.75
vt 0.75 0.5
vt 0.5 0.5
vt 0.5 0.75
vt 0.75 0.75
vt 0.75 0.5
vt 0.5 0.5
vt 0.5 0.75
vt 0.75 0.75
vt 0.75 0.5
vt 0.5 0.5
vt 0.5 0.75
vt 0.75 0.75
vt 0.75 0.5
vt 0.5 0.5
vn -0.4751483844032305 -0.23919095332748275 -0.8467713390551727
vn 0.8440749782111423 0.14792071304469576 -0.5154191438142439
vn 0.4751483844032305 0.23919095332748275 0.8467713390551727
vn -0.8440749782111423 -0.14792071304469576 0.5154191438142439
vn -0.24853861663101692 0.9596390730366489 -0.13161081089523624
vn 0.24853861663101692 -0.9596390730366489 0.13161081089523624
usemtl m_68a9886e-79b4-4145-9302-49580742863e
f 420/1252/313 423/1251/313 421/1250/313 418/1249/313
f 419/1256/314 420/1255/314 418/1254/314 417/1253/314
f 424/1260/315 419/1259/315 417/1258/315 422/1257/315
f 423/1264/316 424/1263/316 422/1262/316 421/1261/316
f 422/1268/317 417/1267/317 418/1266/317 421/1265/317
f 423/1272/318 420/1271/318 419/1270/318 424/1269/318
o Piedra_8
v 0.4502040907323497 0.02475320388026021 -0.40972389107492885
v 0.43329998714697154 0.024713033252792137 -0.4284805477145194
v 0.4506620884779644 0.010453138629050406 -0.41010602734140167
v 0.43375798489258627 0.010412968001582333 -0.42886268398099214
v 0.41803952715500486 0.02385670424701076 -0.4147254952712372
v 0.434943630740383 0.023896874874478835 -0.39596883863164667
v 0.4184975249006196 0.009556638995800958 -0.41510763153770996
v 0.4354016284859977 0.009596809623269031 -0.39635097489811943
vt 0.5 0.75
vt 0.75 0.75
vt 0.75 0.5
vt 0.5 0.5
vt 0.5 0.75
vt 0.75 0.75
vt 0.75 0.5
vt 0.5 0.5
vt 0.5 0.75
vt 0.75 0.75
vt 0.75 0.5
vt 0.5 0.5
vt 0.5 0.75
vt 0.75 0.75
vt 0.75 0.5
vt 0.5 0.5
vt 0.5 0.75
vt 0.75 0.75
vt 0.75 0.5
vt 0.5 0.5
vt 0.5 0.75
vt 0.75 0.75
vt 0.75 0.5
vt 0.5 0.5
vn -0.6694694489258669 -0.001590915939329602 -0.7428378867164559
vn 0.7421500300044568 0.04164517961246808 -0.6689387206459417
vn 0.6694694489258669 0.001590915939329602 0.7428378867164559
vn -0.7421500300044568 -0.04164517961246808 0.6689387206459417
vn -0.0319998424883634 0.9991311965910781 0.026699477133469724
vn 0.0319998424883634 -0.9991311965910781 -0.026699477133469724
usemtl m_68a9886e-79b4-4145-9302-49580742863e
f 428/1276/319 431/1275/319 429/1274/319 426/1273/319
f 427/1280/320 428/1279/320 426/1278/320 425/1277/320
f 432/1284/321 427/1283/321 425/1282/321 430/1281/321
f 431/1288/322 432/1287/322 430/1286/322 429/1285/322
f 430/1292/323 425/1291/323 426/1290/323 429/1289/323
f 431/1296/324 428/1295/324 427/1294/324 432/1293/324
o Piedra_9
v 0.36655980893852613 0.02683189685799645 -0.11895786627956396
v 0.34619146332190465 0.028931633972380175 -0.1559143826317898
v 0.366360508088015 0.009105711687168137 -0.11985516135950813
v 0.34599216247139347 0.011205448801551863 -0.156811677711734
v 0.32888949191198497 0.02864428831283187 -0.1463948386404918
v 0.34925783752860645 0.026544551198448143 -0.10943832228826596
v 0.3286901910614738 0.010918103142003555 -0.14729213372043598
v 0.3490585366780953 0.00881836602761983 -0.11033561736821014
vt 0.5 0.75
vt 0.75 0.75
vt 0.75 0.5
vt 0.5 0.5
vt 0.5 0.75
vt 0.75 0.75
vt 0.75 0.5
vt 0.5 0.5
vt 0.5 0.75
vt 0.75 0.75
vt 0.75 0.5
vt 0.5 0.5
vt 0.5 0.75
vt 0.75 0.75
vt 0.75 0.5
vt 0.5 0.5
vt 0.5 0.75
vt 0.75 0.75
vt 0.75 0.5
vt 0.5 0.5
vt 0.5 0.75
vt 0.75 0.75
vt 0.75 0.5
vt 0.5 0.5
vn -0.4820910205117517 0.049697919867070395 -0.8747104462065285
vn 0.8760491853123923 0.014549147318901666 -0.4820022274074955
vn 0.4820910205117517 -0.049697919867070395 0.8747104462065285
vn -0.8760491853123923 -0.014549147318901666 0.4820022274074955
vn 0.011228216930206154 0.9986583194832852 0.050551835489812694
vn -0.011228216930206154 -0.9986583194832852 -0.050551835489812694
usemtl m_68a9886e-79b4-4145-9302-49580742863e
f 436/1300/325 439/1299/325 437/1298/325 434/1297/325
f 435/1304/326 436/1303/326 434/1302/326 433/1301/326
f 440/1308/327 435/1307/327 433/1306/327 438/1305/327
f 439/1312/328 440/1311/328 438/1310/328 437/1309/328
f 438/1316/329 433/1315/329 434/1314/329 437/1313/329
f 439/1320/330 436/1319/330 435/1318/330 440/1317/330
o Hierba_0
v -0.23932157472601479 0.06653939735478458 0.09908259871066954
v -0.2564146124568291 0.0673267272394383 0.11114854579474412
v -0.24207771288731403 0.009794149262419968 0.09888091177053462
v -0.2591707506181284 0.010581479147073698 0.11094685885460918
v -0.24936512495816043 0.06694874859148298 0.12115975741711046
v -0.23227208722734607 0.06616141870682925 0.10909381033303589
v -0.2521212631194597 0.010203500499118376 0.12095807047697554
v -0.23502822538864532 0.009416170614464647 0.10889212339290097
vt 0 1
vt 0.25 1
vt 0.25 0.75
vt 0 0.75
vt 0 1
vt 0.25 1
vt 0.25 0.75
vt 0 0.75
vt 0 1
vt 0.25 1
vt 0.25 0.75
vt 0 0.75
vt 0 1
vt 0.25 1
vt 0.25 0.75
vt 0 0.75
vt 0 1
vt 0.25 1
vt 0.25 0.75
vt 0 0.75
vt 0 1
vt 0.25 1
vt 0.25 0.75
vt 0 0.75
vn -0.8163838916209848 0.03760381538644677 0.5762840398363973
vn -0.5754683672382629 0.030855399833087493 -0.8172417650911317
vn 0.8163838916209848 -0.03760381538644677 -0.5762840398363973
vn 0.5754683672382629 -0.030855399833087493 0.8172417650911317
vn 0.04851288292715976 0.9988162480504221 0.003550045150889857
vn -0.04851288292715976 -0.9988162480504221 -0.003550045150889857
usemtl m_68a9886e-79b4-4145-9302-49580742863e
f 444/1324/331 447/1323/331 445/1322/331 442/1321/331
f 443/1328/332 444/1327/332 442/1326/332 441/1325/332
f 448/1332/333 443/1331/333 441/1330/333 446/1329/333
f 447/1336/334 448/1335/334 446/1334/334 445/1333/334
f 446/1340/335 441/1339/335 442/1338/335 445/1337/335
f 447/1344/336 444/1343/336 443/1342/336 448/1341/336
o Hierba_1
v -0.3546358541456105 0.04371478443877392 0.25753932719407474
v -0.3681087746369487 0.043658138074886166 0.27223562301559157
v -0.3521495039311421 0.00924594129152998 0.2596858452353937
v -0.3656224244224803 0.009189294927642228 0.27438214105691056
v -0.3560040811438007 0.04522272428090553 0.28333870661614474
v -0.3425311606524625 0.04527937064479328 0.2686424107946279
v -0.35351773092933225 0.010753881133661592 0.28548522465746373
v -0.34004481043799406 0.010810527497549344 0.27078892883594685
vt 0.25 0.5
vt 0.5 0.5
vt 0.5 0.25
vt 0.25 0.25
vt 0.25 0.5
vt 0.5 0.5
vt 0.5 0.25
vt 0.25 0.25
vt 0.25 0.5
vt 0.5 0.5
vt 0.5 0.25
vt 0.25 0.25
vt 0.25 0.5
vt 0.5 0.5
vt 0.5 0.25
vt 0.25 0.25
vt 0.25 0.5
vt 0.5 0.5
vt 0.5 0.25
vt 0.25 0.25
vt 0.25 0.5
vt 0.5 0.5
vt 0.5 0.25
vt 0.25 0.25
vn -0.6757577675906342 -0.0028411969348089163 0.7371182857187171
vn -0.7336177874635175 -0.0948234064254162 -0.6729141576092853
vn 0.6757577675906342 0.0028411969348089163 -0.7371182857187171
vn 0.7336177874635175 0.0948234064254162 0.6729141576092853
vn -0.071807948432301 0.9954900547940487 -0.06199330083231604
vn 0.071807948432301 -0.9954900547940487 0.06199330083231604
usemtl m_68a9886e-79b4-4145-9302-49580742863e
f 452/1348/337 455/1347/337 453/1346/337 450/1345/337
f 451/1352/338 452/1351/338 450/1350/338 449/1349/338
f 456/1356/339 451/1355/339 449/1354/339 454/1353/339
f 455/1360/340 456/1359/340 454/1358/340 453/1357/340
f 454/1364/341 449/1363/341 450/1362/341 453/1361/341
f 455/1368/342 452/1367/342 451/1366/342 456/1365/342
o Hierba_2
v -0.15424137691009362 0.05006645535279605 -0.4081610396755936
v -0.15586241613150392 0.050638758751161084 -0.4221180668272786
v -0.1573407513674851 0.009079685201521888 -0.40948171205718215
v -0.1589617905888954 0.009651988599886923 -0.42343873920886715
v -0.17356707879388522 0.05190962852041167 -0.4200096467930145
v -0.1719460395724749 0.05133732512204664 -0.40605261964132955
v -0.1766664532512767 0.010922858369137511 -0.42133031917460306
v -0.17504541402986637 0.010350554970772476 -0.4073732920229181
vt 0.5 1
vt 0.75 1
vt 0.75 0.75
vt 0.5 0.75
vt 0.5 1
vt 0.75 1
vt 0.75 0.75
vt 0.5 0.75
vt 0.5 1
vt 0.75 1
vt 0.75 0.75
vt 0.5 0.75
vt 0.5 1
vt 0.75 1
vt 0.75 0.75
vt 0.5 0.75
vt 0.5 1
vt 0.75 1
vt 0.75 0.75
vt 0.5 0.75
vt 0.5 1
vt 0.75 1
vt 0.75 0.75
vt 0.5 0.75
vn -0.1152739001891767 0.04069713055040219 -0.9924997085642593
vn 0.9904706384548986 -0.07109760946856446 -0.11795356835043765
vn 0.1152739001891767 -0.04069713055040219 0.9924997085642593
vn -0.9904706384548986 0.07109760946856446 0.11795356835043765
vn 0.07536472844720928 0.9966387878729279 0.032113614141970837
vn -0.07536472844720928 -0.9966387878729279 -0.032113614141970837
usemtl m_68a9886e-79b4-4145-9302-49580742863e
f 460/1372/343 463/1371/343 461/1370/343 458/1369/343
f 459/1376/344 460/1375/344 458/1374/344 457/1373/344
f 464/1380/345 459/1379/345 457/1378/345 462/1377/345
f 463/1384/346 464/1383/346 462/1382/346 461/1381/346
f 462/1388/347 457/1387/347 458/1386/347 461/1385/347
f 463/1392/348 460/1391/348 459/1390/348 464/1389/348
o Hierba_3
v 0.31398313771779895 0.05644851120345394 -0.11848973522619474
v 0.3054824537372818 0.05434603960245436 -0.10319402961872541
v 0.3204793526087342 0.010170629198359836 -0.12124055064409885
v 0.311978668628217 0.008068157597360261 -0.10594484503662951
v 0.3220784912544582 0.05611300840544107 -0.09372779931158941
v 0.33057917523497543 0.05821548000644065 -0.10902350491905873
v 0.32857470614539347 0.009835126400346965 -0.09647861472949351
v 0.3370753901259107 0.01193759800134654 -0.11177432033696283
vt 0.5 1
vt 0.75 1
vt 0.75 0.75
vt 0.5 0.75
vt 0.5 1
vt 0.75 1
vt 0.75 0.75
vt 0.5 0.75
vt 0.5 1
vt 0.75 1
vt 0.75 0.75
vt 0.5 0.75
vt 0.5 1
vt 0.75 1
vt 0.75 0.75
vt 0.5 0.75
vt 0.5 1
vt 0.75 1
vt 0.75 0.75
vt 0.5 0.75
vt 0.5 1
vt 0.75 1
vt 0.75 0.75
vt 0.5 0.75
vn -0.4823083109513313 -0.11928916885103974 0.8678414529060607
vn -0.8649400660417732 -0.09208957930875374 -0.49335402252174865
vn 0.4823083109513313 0.11928916885103974 -0.8678414529060607
vn 0.8649400660417732 0.09208957930875374 0.49335402252174865
vn -0.13877094560075323 0.988579588893866 0.05876241213146284
vn 0.13877094560075323 -0.988579588893866 -0.05876241213146284
usemtl m_68a9886e-79b4-4145-9302-49580742863e
f 468/1396/349 471/1395/349 469/1394/349 466/1393/349
f 467/1400/350 468/1399/350 466/1398/350 465/1397/350
f 472/1404/351 467/1403/351 465/1402/351 470/1401/351
f 471/1408/352 472/1407/352 470/1406/352 469/1405/352
f 470/1412/353 465/1411/353 466/1410/353 469/1409/353
f 471/1416/354 468/1415/354 467/1414/354 472/1413/354
o Hierba_4
v 0.15411068337907793 0.046703011732215444 -0.33723334811297845
v 0.1526752268732337 0.046529365331757166 -0.32582460972753724
v 0.15128375119650048 0.010574755664134999 -0.3381389241254236
v 0.14984829469065625 0.010401109263676725 -0.32673018573998247
v 0.16473000033717408 0.04554847017235879 -0.32432279826488686
v 0.1661654568430183 0.045722116572817065 -0.33573153665032807
v 0.16190306815459662 0.009420214104278343 -0.3252283742773321
v 0.16333852466044085 0.009593860504736616 -0.33663711266277324
vt 0.25 0.5
vt 0.5 0.5
vt 0.5 0.25
vt 0.25 0.25
vt 0.25 0.5
vt 0.5 0.5
vt 0.5 0.25
vt 0.25 0.25
vt 0.25 0.5
vt 0.5 0.5
vt 0.5 0.25
vt 0.25 0.25
vt 0.25 0.5
vt 0.5 0.5
vt 0.5 0.25
vt 0.25 0.25
vt 0.25 0.5
vt 0.5 0.5
vt 0.5 0.25
vt 0.25 0.25
vt 0.25 0.5
vt 0.5 0.5
vt 0.5 0.25
vt 0.25 0.25
vn -0.12482230485601879 -0.015099686996371669 0.9920642074296616
vn -0.9891096175540811 0.08048370538653384 -0.12322555590977544
vn 0.12482230485601879 0.015099686996371669 -0.9920642074296616
vn 0.9891096175540811 -0.08048370538653384 0.12322555590977544
vn 0.07798433607110258 0.9966415467056675 0.024981407239867453
vn -0.07798433607110258 -0.9966415467056675 -0.024981407239867453
usemtl m_68a9886e-79b4-4145-9302-49580742863e
f 476/1420/355 479/1419/355 477/1418/355 474/1417/355
f 475/1424/356 476/1423/356 474/1422/356 473/1421/356
f 480/1428/357 475/1427/357 473/1426/357 478/1425/357
f 479/1432/358 480/1431/358 478/1430/358 477/1429/358
f 478/1436/359 473/1435/359 474/1434/359 477/1433/359
f 479/1440/360 476/1439/360 475/1438/360 480/1437/360
o Hierba_5
v 0.24789281365419855 0.057827583681583375 0.06689643770848169
v 0.23941721094309037 0.05856009706086234 0.08283009670704927
v 0.2466691939138263 0.00968097059717176 0.06845898674161169
v 0.23819359120271813 0.010413483976450727 0.08439264574017927
v 0.2513889223485508 0.05846265881469275 0.08920269728001408
v 0.25986452505965896 0.057730145435413785 0.07326903828144651
v 0.25016530260817854 0.010316045730281134 0.09076524631314409
v 0.25864090531928674 0.009583532351002165 0.07483158731457651
vt 0 1
vt 0.25 1
vt 0.25 0.75
vt 0 0.75
vt 0 1
vt 0.25 1
vt 0.25 0.75
vt 0 0.75
vt 0 1
vt 0.25 1
vt 0.25 0.75
vt 0 0.75
vt 0 1
vt 0.25 1
vt 0.25 0.75
vt 0 0.75
vt 0 1
vt 0.25 1
vt 0.25 0.75
vt 0 0.75
vt 0 1
vt 0.25 1
vt 0.25 0.75
vt 0 0.75
vn -0.4692375203381681 0.04055437393931998 0.8821402905781355
vn -0.8827068317390194 0.0071843868143479685 -0.4698691666702174
vn 0.4692375203381681 -0.04055437393931998 -0.8821402905781355
vn 0.8827068317390194 -0.0071843868143479685 0.4698691666702174
vn 0.02539288695973531 0.999151503697258 -0.032426439079221735
vn -0.02539288695973531 -0.999151503697258 0.032426439079221735
usemtl m_68a9886e-79b4-4145-9302-49580742863e
f 484/1444/361 487/1443/361 485/1442/361 482/1441/361
f 483/1448/362 484/1447/362 482/1446/362 481/1445/362
f 488/1452/363 483/1451/363 481/1450/363 486/1449/363
f 487/1456/364 488/1455/364 486/1454/364 485/1453/364
f 486/1460/365 481/1459/365 482/1458/365 485/1457/365
f 487/1464/366 484/1463/366 483/1462/366 488/1461/366
o Hierba_6
v 0.26117504955429127 0.07453497833822859 0.390345899242958
v 0.2480746930547044 0.07543684162146846 0.39319786496015635
v 0.2567815067971796 0.009621911658686345 0.3906915327898466
v 0.2436811502975927 0.01052377494192622 0.3935434985070449
v 0.2515479678506277 0.0752869603079106 0.4091995687064407
v 0.2646483243502146 0.07438509702467072 0.40634760298924233
v 0.24715442509351607 0.010373893628368358 0.4095452022533293
v 0.26025478159310295 0.009472030345128484 0.40669323653613093
vt 0.25 0.5
vt 0.5 0.5
vt 0.5 0.25
vt 0.25 0.25
vt 0.25 0.5
vt 0.5 0.5
vt 0.5 0.25
vt 0.25 0.25
vt 0.25 0.5
vt 0.5 0.5
vt 0.5 0.25
vt 0.25 0.25
vt 0.25 0.5
vt 0.5 0.5
vt 0.5 0.25
vt 0.25 0.25
vt 0.25 0.5
vt 0.5 0.5
vt 0.5 0.25
vt 0.25 0.25
vt 0.25 0.5
vt 0.5 0.5
vt 0.5 0.25
vt 0.25 0.25
vn -0.9749102511320494 0.06711540712482793 0.21223930918685466
vn -0.21210838448386857 0.009153057316510645 -0.9772032822158367
vn 0.9749102511320494 -0.06711540712482793 -0.21223930918685466
vn 0.21210838448386857 -0.009153057316510645 0.9772032822158367
vn 0.06752803469143787 0.9977032342677001 -0.005312331172158952
vn -0.06752803469143787 -0.9977032342677001 0.005312331172158952
usemtl m_68a9886e-79b4-4145-9302-49580742863e
f 492/1468/367 495/1467/367 493/1466/367 490/1465/367
f 491/1472/368 492/1471/368 490/1470/368 489/1469/368
f 496/1476/369 491/1475/369 489/1474/369 494/1473/369
f 495/1480/370 496/1479/370 494/1478/370 493/1477/370
f 494/1484/371 489/1483/371 490/1482/371 493/1481/371
f 495/1488/372 492/1487/372 491/1486/372 496/1485/372
o Hierba_7
v 0.18998948066151097 0.05482431245110266 0.046320371627318675
v 0.17251438279150916 0.05026034021676901 0.052218770721826346
v 0.20059544400385051 0.012026396402658991 0.04462698788719423
v 0.18312034613384867 0.007462424168325349 0.0505253869817019
v 0.17654859265380993 0.05077151964578467 0.06456639585293016
v 0.19402369052381177 0.05533549188011832 0.05866799675842249
v 0.18715455599614947 0.00797360359734101 0.06287301211280572
v 0.20462965386615128 0.012537575831674653 0.056974613018298044
vt 0.5 1
vt 0.75 1
vt 0.75 0.75
vt 0.5 0.75
vt 0.5 1
vt 0.75 1
vt 0.75 0.75
vt 0.5 0.75
vt 0.5 1
vt 0.75 1
vt 0.75 0.75
vt 0.5 0.75
vt 0.5 1
vt 0.75 1
vt 0.75 0.75
vt 0.5 0.75
vt 0.5 1
vt 0.75 1
vt 0.75 0.75
vt 0.5 0.75
vt 0.5 1
vt 0.75 1
vt 0.75 0.75
vt 0.5 0.75
vn -0.9197419931579913 -0.2402090649649286 0.31044205760566707
vn -0.310323835561599 -0.03932149453966616 -0.9498173177772159
vn 0.9197419931579913 0.2402090649649286 -0.31044205760566707
vn 0.310323835561599 0.03932149453966616 0.9498173177772159
vn -0.24036177546378557 0.9699244430242192 0.03837696861471829
vn 0.24036177546378557 -0.9699244430242192 -0.03837696861471829
usemtl m_68a9886e-79b4-4145-9302-49580742863e
f 500/1492/373 503/1491/373 501/1490/373 498/1489/373
f 499/1496/374 500/1495/374 498/1494/374 497/1493/374
f 504/1500/375 499/1499/375 497/1498/375 502/1497/375
f 503/1504/376 504/1503/376 502/1502/376 501/1501/376
f 502/1508/377 497/1507/377 498/1506/377 501/1505/377
f 503/1512/378 500/1511/378 499/1510/378 504/1509/378
o Hierba_8
v -0.07599474535323658 0.07035633103556883 -0.20378551593015476
v -0.08476361399968423 0.07133607664168103 -0.21802312602485294
v -0.07329842277260357 0.010320311656580646 -0.2095774799033612
v -0.0820672914190512 0.011300057262692845 -0.22381508999805938
v -0.10034472196514395 0.06972121918131663 -0.20853792881017189
v -0.09157585331869632 0.06874147357520444 -0.1943003187154737
v -0.09764839938451093 0.009685199802328444 -0.21432989278337833
v -0.08887953073806329 0.008705454196216246 -0.20009228268868015
vt 0.5 1
vt 0.75 1
vt 0.75 0.75
vt 0.5 0.75
vt 0.5 1
vt 0.75 1
vt 0.75 0.75
vt 0.5 0.75
vt 0.5 1
vt 0.75 1
vt 0.75 0.75
vt 0.5 0.75
vt 0.5 1
vt 0.75 1
vt 0.75 0.75
vt 0.5 0.75
vt 0.5 1
vt 0.75 1
vt 0.75 0.75
vt 0.5 0.75
vt 0.5 1
vt 0.75 1
vt 0.75 0.75
vt 0.5 0.75
vn -0.5235145460565758 0.05849227499177309 -0.8500065728178016
vn 0.850845486168449 0.08818334254549626 -0.5179629878324119
vn 0.5235145460565758 -0.05849227499177309 0.8500065728178016
vn -0.850845486168449 -0.08818334254549626 0.5179629878324119
vn -0.044659587256861644 0.9943854141447324 0.09593315069493079
vn 0.044659587256861644 -0.9943854141447324 -0.09593315069493079
usemtl m_68a9886e-79b4-4145-9302-49580742863e
f 508/1516/379 511/1515/379 509/1514/379 506/1513/379
f 507/1520/380 508/1519/380 506/1518/380 505/1517/380
f 512/1524/381 507/1523/381 505/1522/381 510/1521/381
f 511/1528/382 512/1527/382 510/1526/382 509/1525/382
f 510/1532/383 505/1531/383 506/1530/383 509/1529/383
f 511/1536/384 508/1535/384 507/1534/384 512/1533/384
o Hierba_9
v -0.21990809798230793 0.05513279209511907 -0.05542091099809672
v -0.22171528438204682 0.052684390268522834 -0.03489527079341325
v -0.22118786497008477 0.011536491179627106 -0.06073397500983903
v -0.22299505136982367 0.00908808935303087 -0.04020833480515556
v -0.20590736804213844 0.05205980973586486 -0.03357796097841868
v -0.20410018164239954 0.0545082115624611 -0.05410360118310216
v -0.2071871350299153 0.008463508820372894 -0.03889102499016099
v -0.2053799486301764 0.01091191064696913 -0.05941666519484447
vt 0.25 0.5
vt 0.5 0.5
vt 0.5 0.25
vt 0.25 0.25
vt 0.25 0.5
vt 0.5 0.5
vt 0.5 0.25
vt 0.25 0.25
vt 0.25 0.5
vt 0.5 0.5
vt 0.5 0.25
vt 0.25 0.25
vt 0.25 0.5
vt 0.5 0.5
vt 0.5 0.25
vt 0.25 0.25
vt 0.25 0.5
vt 0.5 0.5
vt 0.5 0.25
vt 0.25 0.25
vt 0.25 0.5
vt 0.5 0.5
vt 0.5 0.25
vt 0.25 0.25
vn -0.08709332046934454 -0.11799526875162585 0.9891874797437823
vn -0.9957742576320266 0.03934365560050254 -0.0829801458264292
vn 0.08709332046934454 0.11799526875162585 -0.9891874797437823
vn 0.9957742576320266 -0.03934365560050254 0.0829801458264292
vn 0.029126986919529838 0.9922344447338143 0.12092322075089178
vn -0.029126986919529838 -0.9922344447338143 -0.12092322075089178
usemtl m_68a9886e-79b4-4145-9302-49580742863e
f 516/1540/385 519/1539/385 517/1538/385 514/1537/385
f 515/1544/386 516/1543/386 514/1542/386 513/1541/386
f 520/1548/387 515/1547/387 513/1546/387 518/1545/387
f 519/1552/388 520/1551/388 518/1550/388 517/1549/388
f 518/1556/389 513/1555/389 514/1554/389 517/1553/389
f 519/1560/390 516/1559/390 515/1558/390 520/1557/390
o Hierba_10
v 0.3236706835786964 0.07052170694404852 0.040815732917224824
v 0.3177740686381436 0.07045598497504378 0.02951139247358813
v 0.3223830485538483 0.009856516454293498 0.041840093759174815
v 0.31648643361329554 0.009790794485288749 0.030535753315538126
v 0.3060849849717882 0.07080701040781805 0.035606657885076685
v 0.3119815999123409 0.07087273237682279 0.04691099832871337
v 0.30479734994694013 0.010141819918063021 0.036631018727026676
v 0.31069396488749285 0.010207541887067769 0.04793535917066337
vt 0.25 0.5
vt 0.5 0.5
vt 0.5 0.25
vt 0.25 0.25
vt 0.25 0.5
vt 0.5 0.5
vt 0.5 0.25
vt 0.25 0.25
vt 0.25 0.5
vt 0.5 0.5
vt 0.5 0.25
vt 0.25 0.25
vt 0.25 0.5
vt 0.5 0.5
vt 0.5 0.25
vt 0.25 0.25
vt 0.25 0.5
vt 0.5 0.5
vt 0.5 0.25
vt 0.25 0.25
vt 0.25 0.5
vt 0.5 0.5
vt 0.5 0.25
vt 0.25 0.25
vn -0.46247960318060766 -0.005154664235666568 -0.8866149367558191
vn 0.886376012614629 -0.026618042295679364 -0.46220022077638234
vn 0.46247960318060766 0.005154664235666568 0.8866149367558191
vn -0.886376012614629 0.026618042295679364 0.46220022077638234
vn 0.021217466938794272 0.9996323870608451 -0.016879272369927797
vn -0.021217466938794272 -0.9996323870608451 0.016879272369927797
usemtl m_68a9886e-79b4-4145-9302-49580742863e
f 524/1564/391 527/1563/391 525/1562/391 522/1561/391
f 523/1568/392 524/1567/392 522/1566/392 521/1565/392
f 528/1572/393 523/1571/393 521/1570/393 526/1569/393
f 527/1576/394 528/1575/394 526/1574/394 525/1573/394
f 526/1580/395 521/1579/395 522/1578/395 525/1577/395
f 527/1584/396 524/1583/396 523/1582/396 528/1581/396
o Hierba_11
v 0.23206817671453805 0.04548070626335878 -0.34689716800600584
v 0.21909611609950225 0.04708441148567149 -0.3386831446794159
v 0.22809532525437812 0.009519702414748874 -0.346150301400936
v 0.2151232646393423 0.011123407637061582 -0.33793627807434606
v 0.22735818875643984 0.046445227162239616 -0.32551040748997184
v 0.24033024937147565 0.04484152193992691 -0.3337244308165617
v 0.2233853372962799 0.010484223313629715 -0.32476354088490195
v 0.23635739791131571 0.008880518091317006 -0.3329775642114919
vt 0 1
vt 0.25 1
vt 0.25 0.75
vt 0 0.75
vt 0 1
vt 0.25 1
vt 0.25 0.75
vt 0 0.75
vt 0 1
vt 0.25 1
vt 0.25 0.75
vt 0 0.75
vt 0 1
vt 0.25 1
vt 0.25 0.75
vt 0 0.75
vt 0 1
vt 0.25 1
vt 0.25 0.75
vt 0 0.75
vt 0 1
vt 0.25 1
vt 0.25 0.75
vt 0 0.75
vn -0.8402954244557613 0.10388373909717956 0.5320824826940848
vn -0.5308962349839413 0.041072085039798555 -0.8464409439000216
vn 0.8402954244557613 -0.10388373909717956 -0.5320824826940848
vn 0.5308962349839413 -0.041072085039798555 0.8464409439000216
vn 0.10978518715467889 0.9937410389944017 -0.020638800830946023
vn -0.10978518715467889 -0.9937410389944017 0.020638800830946023
usemtl m_68a9886e-79b4-4145-9302-49580742863e
f 532/1588/397 535/1587/397 533/1586/397 530/1585/397
f 531/1592/398 532/1591/398 530/1590/398 529/1589/398
f 536/1596/399 531/1595/399 529/1594/399 534/1593/399
f 535/1600/400 536/1599/400 534/1598/400 533/1597/400
f 534/1604/401 529/1603/401 530/1602/401 533/1601/401
f 535/1608/402 532/1607/402 531/1606/402 536/1605/402
o Hierba_12
v 0.3810208721124004 0.0664986955311825 0.4113694781488413
v 0.3784689587891987 0.06560098763586891 0.4301759094670249
v 0.37653479259307676 0.011400818778947308 0.40813069860373385
v 0.37398287926987506 0.010503110883633718 0.4269371299219175
v 0.3998880133081457 0.06369155528640182 0.4329911941537272
v 0.4024399266313474 0.0645892631817154 0.41418476283554356
v 0.39540193378882216 0.00859367853416662 0.4297524146086198
v 0.39795384711202386 0.009491386429480211 0.41094598329043613
vt 0 1
vt 0.25 1
vt 0.25 0.75
vt 0 0.75
vt 0 1
vt 0.25 1
vt 0.25 0.75
vt 0 0.75
vt 0 1
vt 0.25 1
vt 0.25 0.75
vt 0 0.75
vt 0 1
vt 0.25 1
vt 0.25 0.75
vt 0 0.75
vt 0 1
vt 0.25 1
vt 0.25 0.75
vt 0 0.75
vt 0 1
vt 0.25 1
vt 0.25 0.75
vt 0 0.75
vn -0.13431122753693117 -0.04724778396387318 0.9898121746412427
vn -0.9876221103837279 0.08804299017715736 -0.12981139765774258
vn 0.13431122753693117 0.04724778396387318 -0.9898121746412427
vn 0.9876221103837279 -0.08804299017715736 0.12981139765774258
vn 0.08101272269658825 0.9949955169703874 0.05848811819607088
vn -0.08101272269658825 -0.9949955169703874 -0.05848811819607088
usemtl m_68a9886e-79b4-4145-9302-49580742863e
f 540/1612/403 543/1611/403 541/1610/403 538/1609/403
f 539/1616/404 540/1615/404 538/1614/404 537/1613/404
f 544/1620/405 539/1619/405 537/1618/405 542/1617/405
f 543/1624/406 544/1623/406 542/1622/406 541/1621/406
f 542/1628/407 537/1627/407 538/1626/407 541/1625/407
f 543/1632/408 540/1631/408 539/1630/408 544/1629/408
o Hierba_13
v -0.13784710891016744 0.04908290564272182 0.30958922945090195
v -0.13795672908722625 0.0480637642952321 0.323739653139987
v -0.13800751536813113 0.010558115966166709 0.30681335568838386
v -0.13811713554518998 0.00953897461867699 0.3209637793774689
v -0.11633256108217414 0.04796218410092809 0.32389985474236804
v -0.11622294090511531 0.048981325448417816 0.309749431053283
v -0.11649296754013785 0.009437394424372983 0.32112398097984995
v -0.11638334736307902 0.010456535771862703 0.3069735572907649
vt 0.25 1
vt 0.5 1
vt 0.5 0.75
vt 0.25 0.75
vt 0.25 1
vt 0.5 1
vt 0.5 0.75
vt 0.25 0.75
vt 0.25 1
vt 0.5 1
vt 0.5 0.75
vt 0.25 0.75
vt 0.25 1
vt 0.5 1
vt 0.5 0.75
vt 0.25 0.75
vt 0.25 1
vt 0.5 1
vt 0.5 0.75
vt 0.25 0.75
vt 0.25 1
vt 0.5 1
vt 0.5 0.75
vt 0.25 0.75
vn -0.007726532303705935 -0.07183375136491407 0.9973866917416754
vn -0.9999615262451848 0.004697350025618771 -0.0074081665840955
vn 0.007726532303705935 0.07183375136491407 -0.9973866917416754
vn 0.9999615262451848 -0.004697350025618771 0.0074081665840955
vn 0.0041529180055327975 0.9974055579690643 0.07186728187749133
vn -0.0041529180055327975 -0.9974055579690643 -0.07186728187749133
usemtl m_68a9886e-79b4-4145-9302-49580742863e
f 548/1636/409 551/1635/409 549/1634/409 546/1633/409
f 547/1640/410 548/1639/410 546/1638/410 545/1637/410
f 552/1644/411 547/1643/411 545/1642/411 550/1641/411
f 551/1648/412 552/1647/412 550/1646/412 549/1645/412
f 550/1652/413 545/1651/413 546/1650/413 549/1649/413
f 551/1656/414 548/1655/414 547/1654/414 552/1653/414
o Escombro_0
v -0.20129288792009986 0.01875 -0.2513199889225755
v -0.20903902304768063 0.01875 -0.2594784134386975
v -0.20129288792009986 0.009999999999999998 -0.2513199889225755
v -0.20903902304768063 0.009999999999999998 -0.2594784134386975
v -0.25345711207990007 0.01875 -0.21730501107742445
v -0.24571097695231933 0.01875 -0.20914658656130253
v -0.25345711207990007 0.009999999999999998 -0.21730501107742445
v -0.24571097695231933 0.009999999999999998 -0.20914658656130253
vt 0 0.5
vt 0.25 0.5
vt 0.25 0.25
vt 0 0.25
vt 0 0.5
vt 0.25 0.5
vt 0.25 0.25
vt 0 0.25
vt 0 0.5
vt 0.25 0.5
vt 0.25 0.25
vt 0 0.25
vt 0 0.5
vt 0.25 0.5
vt 0.25 0.25
vt 0 0.25
vt 0 0.5
vt 0.25 0.5
vt 0.25 0.25
vt 0 0.25
vt 0 0.5
vt 0.25 0.5
vt 0.25 0.25
vt 0 0.25
vn -0.6885453446738449 0 -0.7251932903219501
vn 0.7251932903219501 0 -0.6885453446738449
vn 0.6885453446738449 0 0.7251932903219501
vn -0.7251932903219501 0 0.6885453446738449
vn 0 1 0
vn 0 -1 0
usemtl m_68a9886e-79b4-4145-9302-49580742863e
f 556/1660/415 559/1659/415 557/1658/415 554/1657/415
f 555/1664/416 556/1663/416 554/1662/416 553/1661/416
f 560/1668/417 555/1667/417 553/1666/417 558/1665/417
f 559/1672/418 560/1671/418 558/1670/418 557/1669/418
f 558/1676/419 553/1675/419 554/1674/419 557/1673/419
f 559/1680/420 556/1679/420 555/1678/420 560/1677/420
o Escombro_1
v -0.1446948776592227 0.01875 -0.051533825235826364
v -0.15591805083961707 0.01875 -0.05231028113468758
v -0.1446948776592227 0.009999999999999998 -0.051533825235826364
v -0.15591805083961707 0.009999999999999998 -0.05231028113468758
v -0.1604258086968947 0.01875 0.012846474273713094
v -0.14920263551650034 0.01875 0.01362293017257431
v -0.1604258086968947 0.009999999999999998 0.012846474273713094
v -0.14920263551650034 0.009999999999999998 0.01362293017257431
vt 0 0.5
vt 0.25 0.5
vt 0.25 0.25
vt 0 0.25
vt 0 0.5
vt 0.25 0.5
vt 0.25 0.25
vt 0 0.25
vt 0 0.5
vt 0.25 0.5
vt 0.25 0.25
vt 0 0.25
vt 0 0.5
vt 0.25 0.5
vt 0.25 0.25
vt 0 0.25
vt 0 0.5
vt 0.25 0.5
vt 0.25 0.25
vt 0 0.25
vt 0 0.5
vt 0.25 0.5
vt 0.25 0.25
vt 0 0.25
vn -0.9976153938128336 0 -0.06901830212099737
vn 0.06901830212099737 0 -0.9976153938128336
vn 0.9976153938128336 0 0.06901830212099737
vn -0.06901830212099737 0 0.9976153938128336
vn 0 1 0
vn 0 -1 0
usemtl m_68a9886e-79b4-4145-9302-49580742863e
f 564/1684/421 567/1683/421 565/1682/421 562/1681/421
f 563/1688/422 564/1687/422 562/1686/422 561/1685/422
f 568/1692/423 563/1691/423 561/1690/423 566/1689/423
f 567/1696/424 568/1695/424 566/1694/424 565/1693/424
f 566/1700/425 561/1699/425 562/1698/425 565/1697/425
f 567/1704/426 564/1703/426 563/1702/426 568/1701/426
o Escombro_2
v -0.19414356805189842 0.01875 -0.053751468607892344
v -0.1981371111273365 0.01875 -0.043234144152280045
v -0.19414356805189842 0.009999999999999998 -0.053751468607892344
v -0.1981371111273365 0.009999999999999998 -0.043234144152280045
v -0.13403986152841052 0.01875 -0.018895717742526734
v -0.13004631845297243 0.01875 -0.029413042198139033
v -0.13403986152841052 0.009999999999999998 -0.018895717742526734
v -0.13004631845297243 0.009999999999999998 -0.029413042198139033
vt 0 0.5
vt 0.25 0.5
vt 0.25 0.25
vt 0 0.25
vt 0 0.5
vt 0.25 0.5
vt 0.25 0.25
vt 0 0.25
vt 0 0.5
vt 0.25 0.5
vt 0.25 0.25
vt 0 0.25
vt 0 0.5
vt 0.25 0.5
vt 0.25 0.25
vt 0 0.25
vt 0 0.5
vt 0.25 0.5
vt 0.25 0.25
vt 0 0.25
vt 0 0.5
vt 0.25 0.5
vt 0.25 0.25
vt 0 0.25
vn -0.3549816067056091 0 0.9348732849433148
vn -0.9348732849433148 0 -0.3549816067056091
vn 0.3549816067056091 0 -0.9348732849433148
vn 0.9348732849433148 0 0.3549816067056091
vn 0 1 0
vn 0 -1 0
usemtl m_68a9886e-79b4-4145-9302-49580742863e
f 572/1708/427 575/1707/427 573/1706/427 570/1705/427
f 571/1712/428 572/1711/428 570/1710/428 569/1709/428
f 576/1716/429 571/1715/429 569/1714/429 574/1713/429
f 575/1720/430 576/1719/430 574/1718/430 573/1717/430
f 574/1724/431 569/1723/431 570/1722/431 573/1721/431
f 575/1728/432 572/1727/432 571/1726/432 576/1725/432
o Escombro_3
v -0.23380506776977233 0.01875 0.1666149404187842
v -0.24148944358055704 0.01875 0.1583983189477277
v -0.23380506776977233 0.009999999999999998 0.1666149404187842
v -0.24148944358055704 0.009999999999999998 0.1583983189477277
v -0.2873199322302277 0.01875 0.2012600595812159
v -0.279635556419443 0.01875 0.20947668105227238
v -0.2873199322302277 0.009999999999999998 0.2012600595812159
v -0.279635556419443 0.009999999999999998 0.20947668105227238
vt 0 0.5
vt 0.25 0.5
vt 0.25 0.25
vt 0 0.25
vt 0 0.5
vt 0.25 0.5
vt 0.25 0.25
vt 0 0.25
vt 0 0.5
vt 0.25 0.5
vt 0.25 0.25
vt 0 0.25
vt 0 0.5
vt 0.25 0.5
vt 0.25 0.25
vt 0 0.25
vt 0 0.5
vt 0.25 0.5
vt 0.25 0.25
vt 0 0.25
vt 0 0.5
vt 0.25 0.5
vt 0.25 0.25
vt 0 0.25
vn -0.6830556276253095 0 -0.7303663529827992
vn 0.7303663529827992 0 -0.6830556276253095
vn 0.6830556276253095 0 0.7303663529827992
vn -0.7303663529827992 0 0.6830556276253095
vn 0 1 0
vn 0 -1 0
usemtl m_68a9886e-79b4-4145-9302-49580742863e
f 580/1732/433 583/1731/433 581/1730/433 578/1729/433
f 579/1736/434 580/1735/434 578/1734/434 577/1733/434
f 584/1740/435 579/1739/435 577/1738/435 582/1737/435
f 583/1744/436 584/1743/436 582/1742/436 581/1741/436
f 582/1748/437 577/1747/437 578/1746/437 581/1745/437
f 583/1752/438 580/1751/438 579/1750/438 584/1749/438
o Escombro_4
v 0.17894358847279876 0.01875 -0.12894810996862877
v 0.17457890680341398 0.01875 -0.11857930801638103
v 0.17894358847279876 0.009999999999999998 -0.12894810996862877
v 0.17457890680341398 0.009999999999999998 -0.11857930801638103
v 0.2587390159824915 0.01875 -0.08315264179987465
v 0.2631036976518763 0.01875 -0.09352144375212239
v 0.2587390159824915 0.009999999999999998 -0.08315264179987465
v 0.2631036976518763 0.009999999999999998 -0.09352144375212239
vt 0 0.5
vt 0.25 0.5
vt 0.25 0.25
vt 0 0.25
vt 0 0.5
vt 0.25 0.5
vt 0.25 0.25
vt 0 0.25
vt 0 0.5
vt 0.25 0.5
vt 0.25 0.25
vt 0 0.25
vt 0 0.5
vt 0.25 0.5
vt 0.25 0.25
vt 0 0.25
vt 0 0.5
vt 0.25 0.5
vt 0.25 0.25
vt 0 0.25
vt 0 0.5
vt 0.25 0.5
vt 0.25 0.25
vt 0 0.25
vn -0.3879717039453128 0 0.9216712846442439
vn -0.9216712846442439 0 -0.3879717039453128
vn 0.3879717039453128 0 -0.9216712846442439
vn 0.9216712846442439 0 0.3879717039453128
vn 0 1 0
vn 0 -1 0
usemtl m_68a9886e-79b4-4145-9302-49580742863e
f 588/1756/439 591/1755/439 589/1754/439 586/1753/439
f 587/1760/440 588/1759/440 586/1758/440 585/1757/440
f 592/1764/441 587/1763/441 585/1762/441 590/1761/441
f 591/1768/442 592/1767/442 590/1766/442 589/1765/442
f 590/1772/443 585/1771/443 586/1770/443 589/1769/443
f 591/1776/444 588/1775/444 587/1774/444 592/1773/444
o Escombro_5
v 0.021185143027016108 0.01875 -0.10716726437961696
v 0.017811509320710302 0.01875 -0.0964350187797587
v 0.021185143027016108 0.009999999999999998 -0.10716726437961696
v 0.017811509320710302 0.009999999999999998 -0.0964350187797587
v 0.09806485697298387 0.01875 -0.07120773562038304
v 0.10143849067928967 0.01875 -0.0819399812202413
v 0.09806485697298387 0.009999999999999998 -0.07120773562038304
v 0.10143849067928967 0.009999999999999998 -0.0819399812202413
vt 0 0.5
vt 0.25 0.5
vt 0.25 0.25
vt 0 0.25
vt 0 0.5
vt 0.25 0.5
vt 0.25 0.25
vt 0 0.25
vt 0 0.5
vt 0.25 0.5
vt 0.25 0.25
vt 0 0.25
vt 0 0.5
vt 0.25 0.5
vt 0.25 0.25
vt 0 0.25
vt 0 0.5
vt 0.25 0.5
vt 0.25 0.25
vt 0 0.25
vt 0 0.5
vt 0.25 0.5
vt 0.25 0.25
vt 0 0.25
vn -0.29987855167162725 0 0.9539773866540691
vn -0.9539773866540691 0 -0.29987855167162725
vn 0.29987855167162725 0 -0.9539773866540691
vn 0.9539773866540691 0 0.29987855167162725
vn 0 1 0
vn 0 -1 0
usemtl m_68a9886e-79b4-4145-9302-49580742863e
f 596/1780/445 599/1779/445 597/1778/445 594/1777/445
f 595/1784/446 596/1783/446 594/1782/446 593/1781/446
f 600/1788/447 595/1787/447 593/1786/447 598/1785/447
f 599/1792/448 600/1791/448 598/1790/448 597/1789/448
f 598/1796/449 593/1795/449 594/1794/449 597/1793/449
f 599/1800/450 596/1799/450 595/1798/450 600/1797/450